<svg xmlns="http://www.w3.org/2000/svg" width="2360" height="1640" viewBox="0 0 2360 1640" version="1.1"><path d="M 0 820 L 0 1640.001 1180.250 1639.750 L 2360.500 1639.500 2360.751 819.750 L 2361.001 0 1180.501 0 L 0 0 0 820 M 0.498 820.500 C 0.498 1271.500, 0.611 1455.850, 0.750 1230.168 C 0.889 1004.485, 0.889 635.485, 0.750 410.168 C 0.611 184.850, 0.498 369.500, 0.498 820.500 M 1127.352 425.526 C 1126.900 426.702, 1126.450 426.788, 1125.383 425.903 C 1124.291 424.997, 1123.983 425.149, 1123.921 426.628 C 1123.877 427.681, 1123.622 427.953, 1123.338 427.250 C 1122.745 425.782, 1119.702 425.615, 1117.236 426.916 C 1115.166 428.008, 1110.496 429.998, 1103 432.981 C 1099.975 434.185, 1096.825 435.548, 1096 436.011 C 1095.175 436.474, 1091.575 438.296, 1088 440.062 C 1084.425 441.827, 1078.515 444.746, 1074.866 446.549 C 1065.075 451.389, 1060.735 454.350, 1057.445 458.438 C 1052.712 464.318, 1045.176 472, 1044.140 472 C 1043.615 472, 1039.852 473.735, 1035.779 475.855 C 1021.417 483.330, 1005.026 495.615, 1006.415 497.862 C 1006.702 498.327, 1005.826 499.214, 1004.469 499.832 C 1003.111 500.451, 1002 501.438, 1002 502.026 C 1002 502.613, 996.987 507.984, 990.860 513.961 C 983.036 521.593, 979.901 525.300, 980.329 526.414 C 980.663 527.286, 981.796 528, 982.846 528 C 983.896 528, 985.267 528.617, 985.892 529.370 C 986.518 530.124, 988.920 530.994, 991.230 531.304 C 993.540 531.614, 995.945 532.571, 996.574 533.432 C 998.463 536.016, 997.166 581.890, 995.134 584.339 C 994.537 585.058, 993.978 588.088, 993.891 591.073 C 993.736 596.422, 991.976 600, 989.501 600 C 987.742 600, 976.782 609.865, 975.242 612.835 C 974.345 614.564, 974.025 618.189, 974.256 623.997 C 974.549 631.351, 974.930 632.930, 976.877 634.877 C 978.379 636.379, 978.910 637.724, 978.435 638.827 C 978.039 639.747, 977.392 642.525, 976.996 645 C 976.600 647.475, 975.270 653.775, 974.039 659 C 972.808 664.225, 971.684 669.175, 971.542 670 C 971.399 670.825, 970.769 672.767, 970.141 674.315 C 969.514 675.863, 969 677.566, 969 678.098 C 969 678.631, 967.826 681.384, 966.390 684.216 C 963.963 689.006, 963.900 689.454, 965.490 690.617 C 966.431 691.304, 966.946 692.279, 966.635 692.782 C 966.324 693.285, 966.954 694.646, 968.035 695.807 C 969.116 696.967, 970 698.416, 970 699.026 C 970 699.739, 972.588 700.125, 977.250 700.106 C 981.237 700.089, 985.850 700.113, 987.500 700.159 C 992.312 700.294, 1002 700.268, 1008.728 700.103 C 1015.127 699.946, 1015.748 700.588, 1012.983 704.500 C 1012.594 705.050, 1011.954 706.850, 1011.560 708.500 C 1011.166 710.150, 1010.183 712.234, 1009.375 713.131 C 1004.681 718.341, 992 739.752, 992 742.467 C 992 743.310, 991.602 744, 991.115 744 C 990.629 744, 989.909 746.573, 989.516 749.718 C 989.123 752.864, 987.977 756.485, 986.970 757.765 C 985.963 759.046, 984.849 761.535, 984.495 763.297 C 984.141 765.059, 983.255 767.850, 982.527 769.500 C 981.799 771.150, 980.635 775.200, 979.939 778.500 C 979.244 781.800, 978.128 785.175, 977.459 786 C 976.204 787.549, 975.049 792.195, 974.576 797.598 C 974.427 799.302, 974.039 801.127, 973.714 801.654 C 973.389 802.180, 972.890 804.540, 972.606 806.897 C 972.322 809.255, 971.234 812.632, 970.190 814.403 C 968.800 816.759, 968.237 819.837, 968.091 825.887 C 967.982 830.434, 967.442 835.339, 966.891 836.788 C 966.340 838.236, 966.141 840.424, 966.448 841.650 C 966.756 842.875, 966.558 844.155, 966.009 844.495 C 965.459 844.834, 964.997 846.549, 964.982 848.306 C 964.967 850.063, 964.923 853.075, 964.884 855 C 964.752 861.517, 965.580 871.512, 966.356 872.767 C 966.804 873.492, 966.415 874.727, 965.430 875.713 C 964.330 876.813, 964.132 877.544, 964.866 877.789 C 966.465 878.322, 966.280 880, 964.622 880 C 963.865 880, 962.728 880.622, 962.097 881.383 C 961.212 882.450, 961.297 882.900, 962.468 883.350 C 963.690 883.818, 963.773 884.405, 962.891 886.340 C 961.971 888.359, 962.163 889.172, 964.077 891.374 C 966.403 894.049, 969.385 894.804, 970.500 893 C 970.840 892.450, 973.389 892, 976.165 892 C 981.203 892, 984.047 890.465, 991.439 883.759 C 995.255 880.296, 995.589 881.345, 995.722 897.250 C 995.934 922.456, 996.217 929.016, 997.117 929.572 C 997.589 929.864, 997.930 933.100, 997.875 936.764 C 997.814 940.849, 998.205 943.568, 998.887 943.796 C 999.499 944, 1000.007 945.142, 1000.015 946.333 C 1000.034 948.938, 1000.979 950.502, 1003 951.271 C 1004.195 951.726, 1004.144 951.858, 1002.750 951.921 C 1000.156 952.038, 1000.630 954.874, 1003.459 956.163 C 1005.506 957.096, 1005.743 957.611, 1004.874 959.235 C 1003.334 962.114, 1004.680 965.928, 1007.633 967.050 C 1009.703 967.838, 1010.092 968.498, 1009.612 970.411 C 1009.209 972.017, 1009.500 972.978, 1010.507 973.364 C 1011.328 973.679, 1012 974.518, 1012 975.228 C 1012 975.938, 1012.895 977.078, 1013.988 977.760 C 1015.132 978.475, 1015.875 979.897, 1015.738 981.110 C 1015.598 982.350, 1016.322 983.686, 1017.500 984.359 C 1018.600 984.986, 1019.725 985.770, 1020 986.100 C 1021.051 987.362, 1024.965 989.005, 1027.184 989.116 C 1028.879 989.201, 1029.030 989.355, 1027.750 989.689 C 1026.787 989.941, 1026 990.379, 1026 990.663 C 1026 991.741, 1030.572 994.935, 1032.161 994.967 C 1033.075 994.985, 1034.958 996.350, 1036.347 998 C 1037.735 999.650, 1039.202 1001, 1039.607 1001 C 1040.011 1001, 1041.146 1001.727, 1042.127 1002.615 C 1043.771 1004.102, 1044.041 1004.102, 1045.528 1002.615 C 1047.354 1000.789, 1048.615 1000.569, 1049.456 1001.928 C 1049.771 1002.438, 1049.123 1003.144, 1048.015 1003.495 C 1045.432 1004.315, 1045.451 1005.636, 1048.064 1007.034 C 1049.536 1007.822, 1050.499 1007.831, 1051.421 1007.066 C 1053.053 1005.711, 1058.996 1006.827, 1059.684 1008.618 C 1060.473 1010.674, 1065.991 1013.040, 1068.519 1012.406 C 1069.763 1012.094, 1071.082 1012.324, 1071.450 1012.919 C 1072.291 1014.280, 1077 1014.348, 1077 1013 C 1077 1011.502, 1079.115 1011.794, 1081.068 1013.562 C 1083.728 1015.969, 1093.369 1016.643, 1096.432 1014.637 C 1099.551 1012.593, 1100 1012.593, 1100 1014.639 C 1100 1016.019, 1100.793 1016.185, 1105 1015.686 C 1108.977 1015.215, 1110 1015.391, 1110 1016.547 C 1110 1017.346, 1110.450 1018.056, 1111 1018.125 C 1113.075 1018.384, 1113.571 1018.599, 1116.288 1020.416 C 1119.010 1022.236, 1119.111 1022.235, 1120.612 1020.390 C 1122.098 1018.562, 1122.133 1018.571, 1121.693 1020.654 C 1121.317 1022.430, 1121.787 1022.894, 1124.369 1023.298 C 1126.774 1023.674, 1127.977 1023.249, 1129.556 1021.464 C 1130.806 1020.051, 1132.097 1019.442, 1132.853 1019.909 C 1133.807 1020.499, 1133.736 1020.974, 1132.547 1021.961 C 1130.391 1023.750, 1130.617 1024.913, 1133 1024.290 C 1134.100 1024.002, 1135 1023.003, 1135 1022.070 C 1135 1021.138, 1136.355 1019.076, 1138.010 1017.490 C 1140.802 1014.815, 1141.261 1014.693, 1144.331 1015.803 C 1146.152 1016.461, 1148.945 1017, 1150.538 1017 C 1152.130 1017, 1155.371 1017.740, 1157.739 1018.645 C 1161.617 1020.126, 1162.516 1020.142, 1166.773 1018.805 C 1169.373 1017.989, 1173.750 1017.224, 1176.500 1017.106 C 1179.250 1016.987, 1183.300 1016.416, 1185.500 1015.836 C 1187.700 1015.257, 1190.625 1014.676, 1192 1014.546 C 1200.130 1013.774, 1214.885 1009.473, 1219 1006.675 C 1221.475 1004.993, 1223.650 1003.253, 1223.833 1002.808 C 1224.017 1002.364, 1224.989 1002, 1225.994 1002 C 1227 1002, 1228.958 1000.650, 1230.347 999 C 1231.735 997.350, 1233.533 996, 1234.342 996 C 1235.303 996, 1235.638 995.331, 1235.307 994.068 C 1234.918 992.577, 1235.224 992.241, 1236.651 992.598 C 1237.720 992.866, 1239.726 991.994, 1241.406 990.530 C 1243.004 989.139, 1244.691 988, 1245.156 988 C 1245.620 988, 1246 987.345, 1246 986.545 C 1246 984.997, 1250.524 980, 1251.926 980 C 1252.386 980, 1254.728 977.699, 1257.131 974.887 C 1259.534 972.074, 1262.063 969.181, 1262.750 968.458 C 1263.438 967.735, 1264 966.642, 1264 966.030 C 1264 965.417, 1264.900 963.950, 1266 962.770 C 1267.100 961.589, 1268 959.583, 1268 958.311 C 1268 957.040, 1268.450 956, 1269 956 C 1269.550 956, 1270 954.650, 1270 953 C 1270 951.350, 1270.450 950, 1271 950 C 1271.550 950, 1272 948.902, 1272 947.559 C 1272 946.216, 1272.450 944.840, 1273 944.500 C 1273.550 944.160, 1274 942.993, 1274 941.906 C 1274 940.819, 1274.641 938.933, 1275.424 937.715 C 1276.727 935.687, 1279.804 923.916, 1281.424 914.762 C 1281.826 912.495, 1282.890 910.594, 1284.129 909.931 C 1286.421 908.705, 1287.186 909.116, 1287.453 911.718 C 1287.799 915.078, 1289.951 919, 1291.450 919 C 1292.274 919, 1293.643 920.342, 1294.491 921.983 C 1295.339 923.623, 1297.263 926.238, 1298.767 927.793 C 1300.270 929.348, 1302.400 931.900, 1303.500 933.464 C 1308.430 940.470, 1310.369 941.978, 1314.500 942.015 C 1323.429 942.094, 1324.198 941.776, 1327.127 936.790 C 1329.879 932.107, 1330.591 929.508, 1331.426 921.102 C 1331.666 918.682, 1332.323 916.418, 1332.886 916.071 C 1333.448 915.723, 1333.920 914.552, 1333.934 913.469 C 1333.984 909.557, 1334.714 904.463, 1335.480 902.689 C 1335.909 901.693, 1335.882 898.318, 1335.419 895.189 C 1334.382 888.184, 1334.401 878.351, 1335.464 870.818 C 1335.905 867.692, 1335.919 864.317, 1335.494 863.318 C 1335.070 862.318, 1334.813 860.116, 1334.923 858.424 C 1335.041 856.610, 1334.463 854.799, 1333.514 854.012 C 1332.293 852.998, 1332.202 852.493, 1333.138 851.915 C 1334.114 851.311, 1334.111 850.356, 1333.124 847.326 C 1332.438 845.222, 1331.732 839, 1331.554 833.500 C 1331.377 828, 1330.267 818.775, 1329.088 813 C 1327.908 807.225, 1326.671 800.802, 1326.337 798.726 C 1326.003 796.650, 1325.341 794.711, 1324.865 794.417 C 1324.389 794.123, 1324 792.945, 1324 791.799 C 1324 789.222, 1320.417 776.730, 1318.321 772 C 1316.143 767.083, 1310.816 758.654, 1309.284 757.700 C 1308.578 757.260, 1308 756.443, 1308 755.884 C 1308 755.324, 1306.875 753.392, 1305.500 751.589 C 1304.125 749.786, 1303 747.838, 1303 747.259 C 1303 746.681, 1301.313 744.774, 1299.250 743.021 C 1297.188 741.269, 1293.793 738.326, 1291.707 736.481 C 1289.622 734.636, 1284.390 731.093, 1280.082 728.608 C 1273.525 724.826, 1271 722.575, 1271 720.513 C 1271 720.335, 1272.981 719.029, 1275.403 717.610 C 1280.678 714.518, 1290.677 703.830, 1292.683 699.137 C 1293.474 697.287, 1295.330 693.947, 1296.807 691.715 C 1301.055 685.297, 1302.280 679.653, 1302.714 664.500 C 1303.071 652.016, 1302.826 649.255, 1300.450 639 C 1297.854 627.795, 1295.071 620.635, 1291.975 617.195 C 1289.764 614.739, 1282 602.217, 1282 601.108 C 1282 600.590, 1281.662 600.017, 1281.250 599.833 C 1280.838 599.650, 1279.679 597.881, 1278.675 595.903 C 1276.381 591.382, 1263.679 578.097, 1258.444 574.743 C 1256.275 573.353, 1252.187 569.964, 1249.361 567.212 C 1246.215 564.149, 1242.919 561.930, 1240.861 561.493 C 1239.012 561.099, 1236.825 560.197, 1236 559.487 C 1235.175 558.778, 1232.636 557.646, 1230.359 556.973 C 1224.032 555.102, 1220.864 552.096, 1220.332 547.459 L 1219.877 543.500 1226.689 540 C 1230.435 538.075, 1234.867 536.454, 1236.538 536.398 C 1239.106 536.312, 1249.854 531.920, 1255 528.854 C 1255.825 528.362, 1257.850 527.333, 1259.500 526.567 C 1261.150 525.801, 1263.625 523.969, 1265 522.496 C 1268.173 519.097, 1275.668 514, 1277.493 514 C 1279.458 514, 1278.923 506.868, 1276.899 506.086 C 1276.064 505.764, 1273.607 503.858, 1271.440 501.851 C 1265.751 496.581, 1257.220 490, 1256.079 490 C 1255.540 490, 1254.740 489.384, 1254.300 488.630 C 1253.860 487.877, 1251.475 486.241, 1249 484.996 C 1246.525 483.750, 1244.275 482.405, 1244 482.005 C 1243.309 481.002, 1237.338 478, 1236.032 478 C 1235.445 478, 1230.905 475.711, 1225.943 472.914 C 1220.980 470.116, 1215.425 467.709, 1213.597 467.564 C 1211.301 467.382, 1208.359 465.707, 1204.085 462.150 C 1200.681 459.318, 1197.291 457, 1196.551 457 C 1195.811 457, 1192.419 455.617, 1189.013 453.928 C 1185.607 452.238, 1182.186 451.099, 1181.410 451.396 C 1180.623 451.698, 1180 451.337, 1180 450.579 C 1180 449.832, 1178.010 448.285, 1175.579 447.142 C 1173.147 445.999, 1170.892 444.634, 1170.567 444.109 C 1170.243 443.584, 1168.628 442.858, 1166.980 442.496 C 1165.332 442.134, 1163.521 440.974, 1162.956 439.919 C 1162.392 438.863, 1161.212 438, 1160.336 438 C 1159.459 438, 1155.538 435.836, 1151.621 433.191 C 1144.513 428.391, 1134.239 424, 1130.116 424 C 1128.918 424, 1127.674 424.686, 1127.352 425.526 M 1007.630 548.070 C 1007.268 551.962, 1007.206 555.525, 1007.492 555.988 C 1007.778 556.451, 1007.447 557.036, 1006.756 557.290 C 1005.842 557.625, 1005.798 558.068, 1006.594 558.919 C 1007.330 559.705, 1007.410 561.790, 1006.840 565.294 C 1006.374 568.157, 1005.799 572.979, 1005.563 576.009 C 1005.327 579.039, 1004.654 582.780, 1004.067 584.324 C 1002.402 588.703, 1002.672 599, 1004.452 599 C 1005.250 599, 1007.555 600.688, 1009.573 602.750 C 1012.962 606.213, 1013.329 606.360, 1014.371 604.674 C 1017.297 599.940, 1032.141 577.223, 1033.719 575.064 C 1035.651 572.422, 1040.151 566.807, 1040.984 566 C 1042.241 564.782, 1043.942 561, 1043.232 561 C 1042.800 561, 1042.618 559.204, 1042.828 557.009 C 1043.112 554.024, 1042.804 552.862, 1041.604 552.402 C 1040.722 552.063, 1040 550.985, 1040 550.007 C 1040 548.049, 1037.225 547.197, 1028 546.323 C 1024.975 546.037, 1022.050 545.454, 1021.500 545.027 C 1020.950 544.601, 1018.250 543.928, 1015.500 543.533 C 1012.750 543.137, 1010.002 542.404, 1009.394 541.903 C 1008.613 541.261, 1008.094 543.076, 1007.630 548.070 M 1091.139 581.076 C 1088.741 581.548, 1084.691 583.258, 1082.139 584.877 C 1079.588 586.496, 1075.643 588.366, 1073.372 589.032 C 1070.658 589.829, 1068.090 591.625, 1065.872 594.279 C 1064.018 596.499, 1060.164 600.912, 1057.308 604.086 C 1053.890 607.884, 1051.744 611.334, 1051.029 614.178 C 1050.431 616.555, 1049.230 620.300, 1048.359 622.500 C 1044.245 632.896, 1043.849 634.821, 1043.735 644.977 C 1043.643 653.085, 1044.049 656.648, 1045.506 660.500 C 1047.803 666.578, 1051.634 673.794, 1054.001 676.500 C 1054.963 677.600, 1056.298 679.561, 1056.968 680.857 C 1058.378 683.587, 1073.487 702.565, 1074.990 703.494 C 1076.750 704.582, 1076.081 707.840, 1073.959 708.513 C 1072.747 708.898, 1071.681 710.347, 1071.334 712.080 C 1071.013 713.686, 1070.356 715, 1069.875 715 C 1069.394 715, 1069 715.679, 1069 716.510 C 1069 717.340, 1068.123 718.770, 1067.051 719.688 C 1065.979 720.606, 1065.340 721.741, 1065.631 722.211 C 1065.921 722.681, 1065.223 724.652, 1064.079 726.590 C 1062.936 728.528, 1062 730.731, 1062 731.486 C 1062 732.240, 1061.325 733.532, 1060.499 734.358 C 1059.674 735.183, 1059.070 736.678, 1059.158 737.679 C 1059.473 741.289, 1058.975 743, 1057.607 743 C 1055.572 743, 1054.843 745.770, 1056.266 748.095 C 1057.301 749.786, 1057.218 750.271, 1055.750 751.105 C 1054.787 751.652, 1054 753.166, 1054 754.469 C 1054 755.772, 1053.367 758.112, 1052.593 759.669 C 1051.818 761.226, 1050.626 763.722, 1049.942 765.216 C 1049.258 766.710, 1048.316 767.696, 1047.849 767.407 C 1046.658 766.670, 1046.784 767.547, 1048.442 771.515 C 1049.725 774.586, 1049.710 775.063, 1048.304 775.849 C 1047.181 776.478, 1046.656 778.502, 1046.486 782.866 C 1046.354 786.239, 1045.755 789.590, 1045.155 790.314 C 1044.554 791.037, 1043.830 793.973, 1043.544 796.839 C 1042.788 804.440, 1042.014 806.836, 1040.155 807.329 C 1039.086 807.613, 1039.340 807.809, 1040.872 807.884 C 1042.915 807.984, 1043.063 808.219, 1041.937 809.576 C 1041.049 810.646, 1040.968 811.369, 1041.686 811.826 C 1042.528 812.363, 1042.658 830.130, 1041.894 840.500 C 1041.749 842.481, 1043.005 852.199, 1043.513 853.021 C 1043.799 853.483, 1043.574 854.145, 1043.014 854.492 C 1042.327 854.916, 1042.348 855.781, 1043.075 857.141 C 1043.670 858.252, 1044.021 860.812, 1043.855 862.830 C 1043.689 864.849, 1044.156 868.241, 1044.893 870.369 C 1046.003 873.571, 1046.006 874.378, 1044.913 875.054 C 1043.819 875.730, 1043.819 876.294, 1044.914 878.340 C 1045.641 879.698, 1045.919 881.322, 1045.532 881.948 C 1045.145 882.575, 1045.354 883.721, 1045.997 884.496 C 1046.639 885.270, 1046.885 886.788, 1046.542 887.868 C 1046.199 888.948, 1046.389 890.122, 1046.963 890.477 C 1047.537 890.832, 1047.724 892.251, 1047.378 893.629 C 1046.904 895.520, 1047.286 896.512, 1048.933 897.666 C 1050.438 898.720, 1051.021 900.021, 1050.809 901.848 C 1050.564 903.952, 1050.965 904.566, 1052.750 904.820 C 1055.089 905.152, 1055.944 907.940, 1053.750 908.079 C 1053.063 908.122, 1053.737 908.610, 1055.250 909.162 C 1057.517 909.990, 1058 910.766, 1058 913.583 C 1058 916.514, 1058.338 917, 1060.378 917 C 1063.240 917, 1065.453 919.376, 1064.618 921.553 C 1064.175 922.708, 1064.480 922.993, 1065.756 922.615 C 1066.973 922.255, 1068.331 923.297, 1070.250 926.063 C 1071.763 928.243, 1073 930.471, 1073 931.013 C 1073 931.556, 1073.454 932, 1074.009 932 C 1074.563 932, 1076.251 933.093, 1077.759 934.429 C 1083.927 939.895, 1085.625 941.250, 1088.250 942.804 C 1089.763 943.699, 1091 944.784, 1091 945.216 C 1091 945.647, 1092.912 946.003, 1095.250 946.007 C 1097.808 946.011, 1100.694 946.804, 1102.500 948 C 1106.930 950.934, 1110.029 950.523, 1114.374 946.425 C 1116.938 944.006, 1118.704 943.065, 1119.832 943.516 C 1122.450 944.563, 1126.211 945.154, 1129.754 945.074 C 1131.544 945.034, 1134.687 945.900, 1136.739 947 C 1140.515 949.024, 1143.764 949.786, 1141 948 C 1139.751 947.193, 1139.835 947.013, 1141.500 946.927 C 1142.600 946.870, 1145.975 946.625, 1149 946.384 C 1152.025 946.142, 1156.300 945.845, 1158.500 945.722 C 1160.700 945.600, 1162.998 945.176, 1163.606 944.780 C 1164.214 944.384, 1167.364 944.068, 1170.606 944.076 C 1181.867 944.107, 1183.185 943.980, 1188.042 942.391 C 1190.728 941.513, 1193.448 940.165, 1194.085 939.397 C 1194.723 938.629, 1195.647 938, 1196.139 938 C 1196.631 938, 1198.974 935.975, 1201.345 933.500 C 1204.092 930.633, 1206.536 928.990, 1208.079 928.973 C 1209.410 928.958, 1211.914 927.721, 1213.642 926.223 C 1217.199 923.141, 1225 910.536, 1225 907.872 C 1225 906.907, 1225.395 905.874, 1225.877 905.576 C 1226.359 905.278, 1227.239 903.114, 1227.833 900.767 C 1228.955 896.326, 1234.438 885.465, 1236.065 884.460 C 1236.579 884.142, 1237.003 882.896, 1237.006 881.691 C 1237.010 880.486, 1237.735 878.150, 1238.619 876.500 C 1241.884 870.404, 1247.404 844.476, 1246.732 838.392 C 1246.480 836.111, 1246.835 833.243, 1247.531 831.942 C 1248.220 830.654, 1248.589 829.093, 1248.351 828.473 C 1248.113 827.852, 1248.404 826.067, 1248.998 824.505 C 1249.825 822.330, 1249.776 821.478, 1248.789 820.863 C 1247.739 820.210, 1247.742 819.670, 1248.807 817.952 C 1249.789 816.369, 1249.832 815.503, 1248.981 814.478 C 1248.103 813.419, 1248.315 812.820, 1249.924 811.815 C 1252.308 810.326, 1252.635 809, 1250.617 809 C 1248.141 809, 1247.930 803.747, 1250.304 801.197 C 1252.127 799.239, 1252.227 798.755, 1250.974 797.963 C 1250.163 797.450, 1249.142 797.024, 1248.705 797.015 C 1247.444 796.991, 1249.074 789.619, 1250.611 788.390 C 1252.444 786.925, 1252.370 786, 1250.421 786 C 1249.232 786, 1248.976 785.319, 1249.386 783.250 C 1251.105 774.584, 1251.194 773, 1249.967 773 C 1249.021 773, 1248.851 771.152, 1249.279 765.500 C 1249.650 760.588, 1249.485 758, 1248.800 758 C 1248.133 758, 1248.178 757.490, 1248.926 756.589 C 1249.729 755.622, 1249.767 754.974, 1249.046 754.528 C 1248.340 754.092, 1248.318 753.274, 1248.979 752.039 C 1249.716 750.661, 1249.580 750.053, 1248.435 749.613 C 1247.594 749.291, 1247.017 748.458, 1247.153 747.763 C 1247.610 745.433, 1245.900 738.883, 1243.867 735.175 C 1241.690 731.203, 1232.531 722, 1230.755 722 C 1230.157 722, 1229.945 721.721, 1230.286 721.381 C 1230.626 721.040, 1230.245 720.102, 1229.438 719.295 C 1228.377 718.234, 1226.872 718.015, 1223.988 718.502 C 1220.735 719.052, 1219.882 718.856, 1219.337 717.436 C 1218.836 716.129, 1221.009 713.437, 1228.085 706.599 C 1239.780 695.297, 1243.419 690.187, 1251.120 674.252 C 1259.745 656.406, 1260.148 655.025, 1260.738 641.346 C 1261.584 621.737, 1256.982 607.058, 1247.799 600.079 C 1233.690 589.355, 1233.149 589.144, 1212.490 586.339 C 1202.984 585.048, 1193.529 590.602, 1184.333 602.882 C 1174.522 615.981, 1173.476 618.692, 1173.675 630.500 C 1173.944 646.496, 1173.824 645.994, 1177.394 646.042 C 1179.102 646.065, 1182.075 646.929, 1184 647.963 C 1186.835 649.485, 1187.177 649.969, 1185.798 650.510 C 1184.862 650.877, 1183.512 650.826, 1182.798 650.397 C 1181.757 649.771, 1181.744 649.917, 1182.731 651.138 C 1183.529 652.123, 1185.113 652.518, 1187.231 652.259 C 1189.783 651.946, 1190.171 652.098, 1189 652.949 C 1187.714 653.885, 1187.857 654.326, 1190 656.041 C 1196.956 661.605, 1197.258 661.964, 1195.554 662.618 C 1193.698 663.330, 1194.385 666.830, 1196.715 668.533 C 1197.864 669.374, 1197.122 670.436, 1192.873 674.037 C 1189.977 676.492, 1186.279 679.737, 1184.655 681.250 C 1183.032 682.763, 1181.345 684, 1180.906 684 C 1180.468 684, 1179.522 685.212, 1178.805 686.692 C 1177.958 688.440, 1176.292 689.696, 1174.056 690.271 C 1172.162 690.759, 1167.316 693.372, 1163.287 696.079 C 1159.258 698.785, 1155.713 701, 1155.409 701 C 1155.106 701, 1154.230 701.563, 1153.463 702.250 C 1148.942 706.305, 1148.951 706.302, 1144.805 705.060 C 1141.352 704.025, 1140.894 703.562, 1141.466 701.680 C 1142.640 697.815, 1142.531 696.500, 1141.038 696.500 C 1140.234 696.500, 1138.235 695.276, 1136.597 693.779 C 1134.526 691.888, 1132.942 691.228, 1131.402 691.614 C 1128.947 692.230, 1125 690.530, 1125 688.856 C 1125 688.265, 1124.115 686.818, 1123.034 685.641 C 1118.805 681.036, 1113 673.489, 1113 672.597 C 1113 672.080, 1112.370 670.947, 1111.599 670.079 C 1109.688 667.924, 1108.052 661.534, 1109.013 659.978 C 1109.520 659.158, 1110.883 658.927, 1112.864 659.323 C 1115.299 659.810, 1116.245 659.488, 1117.453 657.764 C 1118.290 656.569, 1121.438 653.748, 1124.450 651.496 C 1127.461 649.244, 1133.062 644.372, 1136.898 640.669 L 1143.871 633.937 1142.071 628.708 C 1141.082 625.831, 1140.213 620.558, 1140.140 616.989 C 1139.864 603.430, 1136.521 595.399, 1128.818 589.790 C 1126.993 588.461, 1121.880 585.714, 1117.456 583.687 C 1110.486 580.493, 1108.482 580.015, 1102.456 580.110 C 1098.630 580.170, 1093.538 580.605, 1091.139 581.076 M 1096.420 607.573 C 1094.176 609.033, 1091.736 611.188, 1090.999 612.363 C 1088.884 615.732, 1087.094 625.839, 1088.031 629.109 C 1088.487 630.699, 1088.655 632, 1088.405 632 C 1088.154 632, 1088.627 633.313, 1089.457 634.917 C 1091.051 638, 1093.284 638.795, 1100.685 638.913 C 1104.991 638.982, 1110.532 635.628, 1110.781 632.801 C 1110.844 632.086, 1110.958 627.529, 1111.035 622.675 C 1111.142 615.874, 1110.810 613.448, 1109.587 612.096 C 1108.714 611.132, 1108 609.871, 1108 609.294 C 1108 607.823, 1105.929 606.270, 1102.994 605.540 C 1101.233 605.102, 1099.301 605.700, 1096.420 607.573 M 1202.911 614.281 C 1198.835 617.028, 1197.042 621.236, 1198.769 624.002 C 1199.424 625.050, 1199.559 626.154, 1199.071 626.456 C 1198.573 626.764, 1198.772 629.240, 1199.525 632.094 C 1200.263 634.893, 1200.649 637.750, 1200.383 638.443 C 1199.405 640.993, 1204.599 642.999, 1211.889 642.889 C 1217.934 642.797, 1219.163 642.455, 1221.178 640.308 C 1223.174 638.181, 1223.493 636.827, 1223.450 630.667 C 1223.408 624.678, 1222.931 622.678, 1220.548 618.500 C 1218.980 615.750, 1217.203 613.169, 1216.599 612.765 C 1214.150 611.128, 1206.301 611.997, 1202.911 614.281" stroke="none" fill="#ffffff" fill-rule="evenodd"/><path d="M 1007.157 544.643 L 1007.314 550.500 1007.907 545.500 C 1008.236 542.727, 1008.835 541.015, 1009.251 541.656 C 1009.664 542.292, 1012.364 543.130, 1015.251 543.518 C 1018.138 543.906, 1020.950 544.579, 1021.500 545.013 C 1022.050 545.447, 1024.975 545.989, 1028 546.217 C 1031.025 546.446, 1034.287 546.988, 1035.250 547.423 C 1036.535 548.004, 1037 547.769, 1037 546.540 C 1037 545.345, 1036.451 545.039, 1035.084 545.473 C 1034.030 545.808, 1032.852 545.570, 1032.466 544.945 C 1032.011 544.208, 1030.246 544.036, 1027.450 544.455 C 1025.077 544.811, 1022.318 544.688, 1021.318 544.183 C 1020.318 543.677, 1017.475 542.575, 1015 541.734 C 1012.525 540.893, 1009.712 539.886, 1008.750 539.496 C 1007.192 538.864, 1007.017 539.430, 1007.157 544.643 M 1040.639 546.694 C 1039.380 547.953, 1040.030 551.798, 1041.604 552.402 C 1042.804 552.862, 1043.112 554.024, 1042.828 557.009 C 1042.618 559.204, 1042.852 561, 1043.346 561 C 1043.840 561, 1043.627 561.754, 1042.872 562.675 C 1041.714 564.088, 1041.941 564.062, 1044.328 562.508 C 1046.713 560.956, 1046.909 560.529, 1045.578 559.784 C 1044.710 559.298, 1044 557.605, 1044 556.022 C 1044 554.438, 1043.280 552.423, 1042.401 551.544 C 1041.173 550.316, 1041.068 549.623, 1041.949 548.561 C 1043.093 547.183, 1041.880 545.454, 1040.639 546.694 M 1005.571 565.277 C 1004.457 575.068, 1003.974 583.359, 1004.552 582.782 C 1004.842 582.491, 1005.285 579.609, 1005.536 576.377 C 1005.787 573.145, 1006.379 568.124, 1006.852 565.220 C 1007.324 562.316, 1007.389 559.740, 1006.995 559.497 C 1006.601 559.254, 1005.961 561.855, 1005.571 565.277 M 994.311 609.698 C 991.416 610.260, 985 617.440, 985 620.118 C 985 621.281, 986.683 623.772, 988.746 625.662 C 991.664 628.334, 993.046 628.957, 994.996 628.477 C 999.795 627.296, 1003.516 624.370, 1005.838 619.950 C 1007.124 617.503, 1007.841 615.834, 1007.430 616.241 C 1006.302 617.362, 1004.040 615.058, 1004.666 613.427 C 1004.989 612.586, 1004.604 612, 1003.729 612 C 1002.913 612, 1001.685 611.325, 1001 610.500 C 999.768 609.016, 998.564 608.871, 994.311 609.698 M 995.750 637.716 C 990.990 638.437, 987.809 643.875, 987.237 652.271 C 986.900 657.232, 985.880 661.382, 983.988 665.500 C 982.471 668.800, 980.915 673.406, 980.530 675.737 C 980.144 678.067, 978.730 681.592, 977.388 683.570 C 976.045 685.549, 974.846 688.142, 974.723 689.334 C 974.514 691.360, 974.887 691.486, 980.500 691.285 C 992.518 690.856, 996.130 690.940, 999.284 691.724 C 1001.053 692.164, 1003.947 692.378, 1005.716 692.201 C 1008.529 691.919, 1009.017 691.427, 1009.607 688.282 C 1010.055 685.894, 1009.709 683.093, 1008.579 679.951 C 1007.423 676.734, 1007.020 673.340, 1007.323 669.359 C 1007.744 663.816, 1005.498 639.614, 1004.396 637.832 C 1003.877 636.992, 1000.801 636.951, 995.750 637.716 M 1173.030 642.687 C 1173.001 646.684, 1173.146 646.887, 1176.243 647.187 C 1178.611 647.415, 1179.832 648.226, 1180.769 650.191 C 1181.475 651.671, 1183.053 653.182, 1184.276 653.550 C 1187.435 654.498, 1193.940 660.993, 1193.328 662.587 C 1193.046 663.322, 1193.520 665.336, 1194.381 667.061 C 1195.871 670.048, 1195.839 670.291, 1193.723 672.091 C 1191.469 674.009, 1186.308 677.968, 1181.630 681.367 C 1180.217 682.395, 1178.791 684.082, 1178.463 685.117 C 1178.134 686.153, 1177.221 687, 1176.433 687 C 1175.645 687, 1175 687.356, 1175 687.792 C 1175 688.227, 1173.537 689.292, 1171.750 690.158 C 1161.908 694.925, 1158.269 696.971, 1157.078 698.405 C 1156.351 699.282, 1155.328 700, 1154.806 700 C 1154.284 700, 1153.164 700.693, 1152.318 701.539 C 1150.932 702.925, 1150.653 702.907, 1149.521 701.359 C 1148.353 699.762, 1148.180 699.795, 1147.102 701.810 C 1146.123 703.639, 1145.642 703.794, 1144.040 702.793 C 1142.546 701.860, 1142.359 701.198, 1143.163 699.696 C 1143.750 698.599, 1143.811 697.411, 1143.307 696.907 C 1142.802 696.402, 1142.379 696.767, 1142.311 697.764 C 1142.247 698.719, 1141.881 700.481, 1141.499 701.680 C 1140.896 703.571, 1141.335 704.020, 1144.805 705.060 C 1148.951 706.302, 1148.942 706.305, 1153.463 702.250 C 1154.230 701.563, 1155.106 701, 1155.409 701 C 1155.713 701, 1159.258 698.785, 1163.287 696.079 C 1167.316 693.372, 1172.162 690.759, 1174.056 690.271 C 1176.292 689.696, 1177.958 688.440, 1178.805 686.692 C 1179.522 685.212, 1180.468 684, 1180.906 684 C 1181.345 684, 1183.032 682.763, 1184.655 681.250 C 1186.279 679.737, 1189.977 676.492, 1192.873 674.037 C 1197.122 670.436, 1197.864 669.374, 1196.715 668.533 C 1194.401 666.842, 1193.697 663.330, 1195.531 662.627 C 1196.849 662.121, 1196.641 661.566, 1194.310 659.380 C 1191.741 656.971, 1191.693 656.804, 1193.750 657.439 C 1195.056 657.843, 1196 657.711, 1196 657.126 C 1196 655.372, 1193.970 654.780, 1192.406 656.078 C 1191.181 657.095, 1190.582 657.011, 1189.200 655.628 C 1187.705 654.133, 1187.681 653.803, 1189 652.893 C 1190.136 652.109, 1189.707 651.955, 1187.231 652.259 C 1185.263 652.500, 1183.515 652.121, 1182.840 651.307 C 1181.960 650.247, 1182.063 650.087, 1183.311 650.566 C 1184.187 650.902, 1185.441 650.845, 1186.098 650.440 C 1187.843 649.361, 1181.218 646.093, 1177.183 646.042 C 1174.339 646.006, 1173.955 645.717, 1174.494 644.020 C 1174.839 642.931, 1174.658 641.244, 1174.091 640.270 C 1173.264 638.849, 1173.055 639.326, 1173.030 642.687 M 1153.557 640.726 C 1152.488 640.998, 1150.808 642.246, 1149.823 643.498 C 1148.214 645.543, 1143.704 647.591, 1141.750 647.164 C 1141.338 647.074, 1141 647.450, 1141 648 C 1141 648.550, 1140.100 649, 1139 649 C 1137.900 649, 1137 649.412, 1137 649.916 C 1137 651.395, 1129.508 659, 1128.052 659 C 1127.320 659, 1126.080 659.788, 1125.297 660.750 C 1124.262 662.023, 1123.733 662.160, 1123.354 661.250 C 1123.068 660.563, 1122.366 660, 1121.794 660 C 1121.144 660, 1121.200 660.536, 1121.942 661.430 C 1122.888 662.570, 1122.737 663.070, 1121.196 663.895 C 1117.293 665.984, 1122.452 675.995, 1127.437 676.004 C 1130.534 676.009, 1136 679.716, 1136 681.811 C 1136 682.823, 1137.147 684.729, 1138.549 686.046 C 1140.890 688.246, 1140.951 688.505, 1139.299 689.239 C 1138.116 689.765, 1138.588 689.874, 1140.680 689.558 C 1142.554 689.275, 1144.014 689.541, 1144.235 690.206 C 1145.176 693.027, 1160.139 690.221, 1163.502 686.593 C 1164.735 685.262, 1167.939 683.384, 1170.622 682.419 C 1176.161 680.427, 1183 673.325, 1183 669.567 C 1183 667.032, 1179.499 662, 1177.736 662 C 1175.905 662, 1168.873 653.860, 1166.959 649.524 C 1163.513 641.720, 1159.641 639.178, 1153.557 640.726 M 1108.741 660.250 C 1108.138 662.022, 1109.936 668.204, 1111.599 670.079 C 1112.370 670.947, 1113 672.158, 1113 672.770 C 1113 673.381, 1113.445 674.157, 1113.989 674.493 C 1115.248 675.271, 1114.135 672.028, 1112.447 670 C 1111.761 669.175, 1110.740 666.813, 1110.180 664.750 C 1109.124 660.864, 1109.606 660.366, 1113.850 660.948 C 1114.593 661.050, 1114.904 660.654, 1114.541 660.067 C 1113.627 658.587, 1109.260 658.725, 1108.741 660.250 M 979.447 697.886 C 978.227 699.107, 979.249 700.168, 981.162 699.668 C 982.351 699.357, 984.137 699.538, 985.131 700.070 C 986.217 700.652, 989.045 700.711, 992.219 700.218 C 995.124 699.768, 999.075 699.743, 1001 700.163 C 1002.925 700.583, 1006.726 700.649, 1009.447 700.309 C 1017.934 699.248, 1010.951 697.813, 1000.322 698.434 C 994.747 698.759, 990.861 698.583, 990.493 697.989 C 989.911 697.047, 980.374 696.959, 979.447 697.886 M 1069.250 713.556 C 1068.563 714.304, 1068 715.594, 1068 716.423 C 1068 717.251, 1067.100 718.411, 1066 719 C 1064.900 719.589, 1064 720.730, 1064 721.535 C 1064 722.341, 1063.116 723.884, 1062.036 724.964 C 1060.957 726.043, 1060.464 727.169, 1060.943 727.465 C 1062.209 728.247, 1061.096 731.603, 1058.916 733.576 C 1057.624 734.746, 1057.221 736.034, 1057.635 737.681 C 1058.030 739.255, 1057.625 740.757, 1056.458 742.046 C 1055.480 743.128, 1054.976 744.310, 1055.339 744.673 C 1055.703 745.036, 1056 744.808, 1056 744.167 C 1056 743.525, 1056.675 743, 1057.500 743 C 1058.965 743, 1059.479 741.351, 1059.158 737.679 C 1059.070 736.678, 1059.674 735.183, 1060.499 734.358 C 1061.325 733.532, 1062 732.240, 1062 731.486 C 1062 730.731, 1062.936 728.528, 1064.079 726.590 C 1065.223 724.652, 1065.921 722.681, 1065.631 722.211 C 1065.340 721.741, 1065.979 720.606, 1067.051 719.688 C 1068.123 718.770, 1069 717.378, 1069 716.593 C 1069 715.809, 1069.517 714.994, 1070.150 714.783 C 1070.783 714.572, 1071.120 713.904, 1070.900 713.299 C 1070.632 712.559, 1070.089 712.644, 1069.250 713.556 M 1220.566 713.927 C 1217.627 717.175, 1219.223 719.307, 1223.988 718.502 C 1226.872 718.015, 1228.377 718.234, 1229.438 719.295 C 1230.245 720.102, 1230.626 721.040, 1230.286 721.381 C 1229.945 721.721, 1230.157 722, 1230.755 722 C 1232.531 722, 1241.690 731.203, 1243.867 735.175 C 1245.900 738.883, 1247.610 745.433, 1247.153 747.763 C 1247.017 748.458, 1247.594 749.291, 1248.435 749.613 C 1249.580 750.053, 1249.716 750.661, 1248.979 752.039 C 1248.318 753.274, 1248.340 754.092, 1249.046 754.528 C 1249.767 754.974, 1249.729 755.622, 1248.926 756.589 C 1248.178 757.490, 1248.133 758, 1248.800 758 C 1249.485 758, 1249.650 760.588, 1249.279 765.500 C 1248.851 771.152, 1249.021 773, 1249.967 773 C 1251.194 773, 1251.105 774.584, 1249.386 783.250 C 1248.986 785.268, 1249.240 786, 1250.337 786 C 1251.160 786, 1252.013 786.540, 1252.233 787.199 C 1252.483 787.950, 1252.877 787.762, 1253.285 786.699 C 1253.763 785.455, 1253.410 785, 1251.969 785 C 1250.886 785, 1250.005 784.888, 1250.011 784.750 C 1250.017 784.612, 1250.691 782.295, 1251.508 779.599 C 1252.607 775.976, 1252.706 774.350, 1251.886 773.362 C 1251.275 772.627, 1251.016 771.400, 1251.310 770.635 C 1251.604 769.870, 1251.372 768.772, 1250.797 768.197 C 1249.314 766.714, 1250.721 760.264, 1252.790 759.058 C 1254.393 758.123, 1254.390 758.059, 1252.750 758.030 C 1251.105 758.002, 1250.387 755.279, 1250.942 751.176 C 1251.041 750.448, 1250.679 749.318, 1250.138 748.666 C 1249.596 748.014, 1248.834 744.658, 1248.444 741.208 C 1247.901 736.411, 1247.202 734.518, 1245.472 733.157 C 1242.315 730.673, 1243.911 728, 1248.550 728 C 1250.950 728, 1252 727.544, 1252 726.500 C 1252 724.708, 1250.836 724.564, 1249.242 726.158 C 1248.366 727.034, 1247.692 726.989, 1246.466 725.972 C 1245.107 724.844, 1244.708 724.854, 1243.978 726.035 C 1243.500 726.809, 1242.747 727.056, 1242.304 726.584 C 1241.862 726.112, 1242.063 725.525, 1242.750 725.280 C 1244.198 724.763, 1244.459 722, 1243.059 722 C 1242.541 722, 1241.869 722.403, 1241.564 722.896 C 1240.783 724.160, 1234.053 722.482, 1232.109 720.537 C 1230.695 719.123, 1230.681 718.816, 1231.992 718.005 C 1233.262 717.220, 1233.277 716.892, 1232.095 715.792 C 1230.946 714.723, 1230.851 714.759, 1231.545 716 C 1232.268 717.293, 1232.150 717.310, 1230.692 716.128 C 1229.761 715.373, 1229 715.201, 1229 715.747 C 1229 716.824, 1222.192 718.237, 1220.887 717.430 C 1220.447 717.158, 1220.357 716.234, 1220.686 715.375 C 1221.095 714.310, 1222.192 713.948, 1224.143 714.234 C 1225.714 714.465, 1227 714.282, 1227 713.827 C 1227 713.372, 1226.587 713, 1226.082 713 C 1225.577 713, 1224.536 712.759, 1223.769 712.465 C 1223.002 712.170, 1221.560 712.829, 1220.566 713.927 M 1053.079 755.115 C 1053.036 756.003, 1052.167 757.803, 1051.149 759.115 C 1050.131 760.427, 1049.467 761.983, 1049.674 762.573 C 1049.880 763.163, 1049.138 764.470, 1048.024 765.478 C 1045.872 767.426, 1045.429 770.549, 1046.963 772.974 C 1047.563 773.924, 1047.509 774.686, 1046.808 775.119 C 1046.210 775.488, 1045.525 777.750, 1045.286 780.145 C 1045.047 782.540, 1044.264 784.829, 1043.547 785.232 C 1042.646 785.737, 1042.399 787.363, 1042.751 790.482 C 1043.031 792.967, 1042.864 795, 1042.380 795 C 1041.896 795, 1041.420 797.066, 1041.323 799.591 C 1041.215 802.384, 1040.447 804.953, 1039.363 806.152 C 1037.832 807.843, 1037.786 808.250, 1039.040 809.026 C 1040.157 809.717, 1040.448 811.821, 1040.278 817.974 C 1040.156 822.398, 1040.482 827.139, 1041.003 828.509 C 1041.611 830.107, 1041.591 831.945, 1040.949 833.635 C 1039.413 837.674, 1039.244 845.051, 1040.584 849.561 C 1041.340 852.106, 1041.452 854.228, 1040.883 855.245 C 1040.339 856.216, 1040.339 857.092, 1040.884 857.428 C 1041.386 857.739, 1041.452 859.494, 1041.031 861.361 C 1040.578 863.370, 1040.702 865.494, 1041.337 866.616 C 1041.923 867.652, 1042.494 870.075, 1042.605 872 C 1042.940 877.808, 1043.823 883.905, 1044.485 884.976 C 1044.828 885.530, 1044.680 886.749, 1044.157 887.684 C 1043.497 888.864, 1043.667 890.088, 1044.713 891.684 C 1045.542 892.949, 1045.968 894.640, 1045.661 895.441 C 1045.321 896.327, 1045.866 897.140, 1047.051 897.516 C 1049.236 898.210, 1049.664 900.558, 1047.750 901.352 C 1046.160 902.012, 1050.500 905.986, 1052.861 906.032 C 1054.334 906.060, 1054.324 906.197, 1052.766 907.381 C 1050.814 908.863, 1051.422 910, 1054.167 910 C 1055.987 910, 1056.539 911.972, 1055.986 916.500 C 1055.380 921.465, 1055.373 921.455, 1059.250 921.146 C 1062.965 920.850, 1064.390 922.253, 1061.500 923.362 C 1060.675 923.678, 1060 924.449, 1060 925.076 C 1060 925.702, 1060.675 925.941, 1061.500 925.607 C 1062.325 925.273, 1063.698 924.718, 1064.551 924.374 C 1065.816 923.862, 1065.973 924.259, 1065.403 926.529 C 1064.782 929.003, 1064.937 929.250, 1066.806 928.761 C 1067.962 928.459, 1069.642 928.749, 1070.540 929.406 C 1071.995 930.470, 1071.892 930.728, 1069.587 931.779 C 1066.410 933.226, 1066.275 934.577, 1069.229 935.350 C 1070.641 935.719, 1071.759 935.395, 1072.279 934.466 C 1073.498 932.287, 1074.704 932.685, 1075.411 935.500 C 1075.889 937.405, 1076.688 937.999, 1078.769 937.995 L 1081.500 937.991 1078.304 934.995 C 1076.547 933.348, 1074.634 932, 1074.054 932 C 1073.474 932, 1073 931.556, 1073 931.013 C 1073 930.471, 1071.763 928.243, 1070.250 926.063 C 1068.331 923.297, 1066.973 922.255, 1065.756 922.615 C 1064.480 922.993, 1064.175 922.708, 1064.618 921.553 C 1065.453 919.376, 1063.240 917, 1060.378 917 C 1058.338 917, 1058 916.514, 1058 913.583 C 1058 910.766, 1057.517 909.990, 1055.250 909.162 C 1053.737 908.610, 1053.063 908.122, 1053.750 908.079 C 1055.944 907.940, 1055.089 905.152, 1052.750 904.820 C 1050.965 904.566, 1050.564 903.952, 1050.809 901.848 C 1051.021 900.021, 1050.438 898.720, 1048.933 897.666 C 1047.286 896.512, 1046.904 895.520, 1047.378 893.629 C 1047.724 892.251, 1047.537 890.832, 1046.963 890.477 C 1046.389 890.122, 1046.199 888.948, 1046.542 887.868 C 1046.885 886.788, 1046.639 885.270, 1045.997 884.496 C 1045.354 883.721, 1045.145 882.575, 1045.532 881.948 C 1045.919 881.322, 1045.641 879.698, 1044.914 878.340 C 1043.819 876.294, 1043.819 875.730, 1044.913 875.054 C 1046.006 874.378, 1046.003 873.571, 1044.893 870.369 C 1044.156 868.241, 1043.689 864.849, 1043.855 862.830 C 1044.021 860.812, 1043.670 858.252, 1043.075 857.141 C 1042.348 855.781, 1042.327 854.916, 1043.014 854.492 C 1043.574 854.145, 1043.799 853.483, 1043.513 853.021 C 1043.005 852.199, 1041.749 842.481, 1041.894 840.500 C 1042.658 830.130, 1042.528 812.363, 1041.686 811.826 C 1040.968 811.369, 1041.049 810.646, 1041.937 809.576 C 1043.063 808.219, 1042.915 807.984, 1040.872 807.884 C 1039.340 807.809, 1039.086 807.613, 1040.155 807.329 C 1042.014 806.836, 1042.788 804.440, 1043.544 796.839 C 1043.830 793.973, 1044.554 791.037, 1045.155 790.314 C 1045.755 789.590, 1046.354 786.239, 1046.486 782.866 C 1046.656 778.502, 1047.181 776.478, 1048.304 775.849 C 1049.710 775.063, 1049.725 774.586, 1048.442 771.515 C 1046.784 767.547, 1046.658 766.670, 1047.849 767.407 C 1048.316 767.696, 1049.264 766.710, 1049.955 765.216 C 1050.645 763.722, 1051.888 761.076, 1052.717 759.335 C 1053.545 757.594, 1053.984 755.569, 1053.691 754.835 C 1053.308 753.877, 1053.136 753.956, 1053.079 755.115 M 977.248 786.250 C 976.165 787.608, 975.008 792.591, 974.573 797.767 C 974.422 799.564, 974.007 801.327, 973.649 801.684 C 973.292 802.041, 973.029 803.046, 973.063 803.917 C 973.160 806.338, 975.176 800.984, 975.563 797.278 C 975.748 795.506, 976.393 793.135, 976.996 792.008 C 977.599 790.881, 977.808 789.498, 977.460 788.936 C 977.112 788.373, 977.372 787.257, 978.036 786.456 C 978.701 785.655, 979.020 785, 978.745 785 C 978.470 785, 977.796 785.563, 977.248 786.250 M 1250.974 797.963 C 1252.227 798.755, 1252.127 799.239, 1250.304 801.197 C 1247.930 803.747, 1248.141 809, 1250.617 809 C 1252.635 809, 1252.308 810.326, 1249.924 811.815 C 1248.315 812.820, 1248.103 813.419, 1248.981 814.478 C 1249.832 815.503, 1249.789 816.369, 1248.807 817.952 C 1247.759 819.643, 1247.750 820.217, 1248.762 820.847 C 1249.741 821.457, 1249.771 822.358, 1248.896 824.867 C 1248.276 826.647, 1248.028 828.361, 1248.344 828.678 C 1248.661 828.994, 1248.345 830.434, 1247.641 831.877 C 1246.221 834.789, 1246.608 846.252, 1248.047 843.923 C 1248.507 843.180, 1248.647 840.382, 1248.358 837.706 C 1247.965 834.058, 1248.242 832.391, 1249.465 831.038 C 1250.569 829.819, 1250.883 828.383, 1250.437 826.605 C 1250.045 825.043, 1250.278 823.370, 1251.011 822.487 C 1251.968 821.334, 1251.977 820.678, 1251.053 819.564 C 1250.259 818.608, 1250.173 817.522, 1250.795 816.314 C 1251.309 815.316, 1251.551 814.005, 1251.332 813.400 C 1251.113 812.795, 1251.623 811.728, 1252.467 811.028 C 1254.592 809.264, 1254.382 808, 1251.966 808 C 1250.367 808, 1250.004 807.459, 1250.271 805.468 C 1250.457 804.076, 1251.329 802.097, 1252.207 801.071 C 1253.830 799.176, 1252.933 796.981, 1250.550 797.015 C 1249.973 797.024, 1250.163 797.450, 1250.974 797.963 M 967.621 832.500 C 967.175 835.250, 966.698 838.850, 966.561 840.500 C 966.424 842.150, 966.036 844.175, 965.699 845 C 965.106 846.451, 965.020 847.497, 964.879 855 C 964.751 861.770, 965.594 871.533, 966.420 872.871 C 966.938 873.709, 966.732 874.591, 965.878 875.188 C 964.746 875.980, 964.767 876.079, 966 875.740 C 966.825 875.513, 967.506 874.620, 967.513 873.754 C 967.521 872.888, 968.381 871.237, 969.424 870.084 C 970.467 868.931, 970.987 867.654, 970.579 867.245 C 970.171 866.837, 969.261 867.290, 968.558 868.252 C 967.855 869.213, 967.087 870, 966.853 870 C 965.939 870, 966.149 865.526, 967.116 864.360 C 967.815 863.518, 967.801 862.496, 967.071 861.133 C 966.250 859.599, 966.366 858.777, 967.573 857.569 C 968.949 856.194, 968.956 856, 967.630 856 C 965.230 856, 964.656 854.038, 966.470 852.033 C 967.889 850.465, 967.941 849.876, 966.818 848.065 C 965.722 846.297, 965.729 845.797, 966.857 845.094 C 967.697 844.571, 967.963 843.457, 967.554 842.169 C 967.190 841.025, 967.411 838.361, 968.043 836.250 C 968.676 834.139, 969.022 831.307, 968.813 829.956 C 968.549 828.252, 968.184 829.031, 967.621 832.500 M 989.243 884 C 986.907 886.200, 984.655 888, 984.239 888 C 983.822 888, 982.869 888.981, 982.120 890.180 C 981.097 891.817, 981.845 891.509, 985.129 888.939 C 987.533 887.057, 990.372 884.726, 991.439 883.759 C 994.089 881.354, 995.977 881.552, 996.116 884.250 C 996.207 886.017, 996.332 886.114, 996.699 884.702 C 997.140 883.002, 995.494 880, 994.122 880 C 993.774 880, 991.578 881.800, 989.243 884 M 963.198 883.750 C 963.307 884.163, 963.061 885.484, 962.651 886.688 C 961.282 890.703, 967.682 895.875, 970.550 893.071 C 971.072 892.561, 972.850 891.949, 974.500 891.712 C 976.150 891.475, 975.025 891.330, 972 891.390 C 966.868 891.493, 966.516 891.350, 966.737 889.254 C 966.880 887.911, 966.478 887.107, 965.737 887.254 C 964.980 887.405, 964.621 886.627, 964.813 885.250 C 964.985 884.013, 964.647 883, 964.063 883 C 963.478 883, 963.089 883.337, 963.198 883.750 M 995.673 897 C 996.205 907.837, 997 911.860, 997 903.716 C 997 900.374, 997.483 898.818, 998.750 898.080 C 1000.343 897.152, 1000.313 897.058, 998.420 897.030 C 996.700 897.005, 996.360 896.405, 996.454 893.560 C 996.517 891.668, 996.251 889.305, 995.863 888.310 C 995.475 887.314, 995.389 891.225, 995.673 897 M 1294.012 920.500 C 1294.014 921.761, 1296.881 925.992, 1299.500 928.597 C 1300.600 929.692, 1302.400 931.861, 1303.500 933.419 C 1307.097 938.513, 1310.161 942, 1311.041 942 C 1311.516 942, 1310.773 940.780, 1309.391 939.288 C 1308.009 937.796, 1307.070 935.842, 1307.304 934.944 C 1307.539 934.047, 1306.925 932.810, 1305.940 932.195 C 1304.955 931.579, 1304.003 930.047, 1303.825 928.788 C 1303.579 927.059, 1302.950 926.576, 1301.250 926.813 C 1300.013 926.985, 1298.984 926.760, 1298.964 926.313 C 1298.910 925.093, 1294.010 919.342, 1294.012 920.500 M 1329.694 926.933 C 1329.029 932.548, 1324.805 940, 1322.287 940 C 1321.048 940, 1320.896 940.296, 1321.713 941.113 C 1323.273 942.673, 1324.445 941.686, 1327.493 936.241 C 1329.820 932.084, 1332.146 922, 1330.779 922 C 1330.504 922, 1330.016 924.220, 1329.694 926.933 M 1201.286 933.513 C 1198.968 935.981, 1196.661 938, 1196.159 938 C 1195.656 938, 1194.712 938.642, 1194.061 939.426 C 1193.410 940.211, 1190.352 941.647, 1187.264 942.618 C 1184.177 943.589, 1182.224 944.575, 1182.924 944.808 C 1183.624 945.041, 1185.165 944.789, 1186.349 944.246 C 1187.532 943.704, 1190.845 942.189, 1193.711 940.880 C 1196.577 939.571, 1198.940 938.127, 1198.961 937.672 C 1198.983 937.216, 1200.837 935.078, 1203.082 932.922 C 1205.326 930.765, 1206.789 929.006, 1206.332 929.013 C 1205.874 929.020, 1203.604 931.045, 1201.286 933.513 M 1273.116 941.264 C 1273.003 942.976, 1272.575 944.057, 1270.156 948.736 C 1269.520 949.966, 1269 951.852, 1269 952.927 C 1269 954.002, 1268.550 955.160, 1268 955.500 C 1267.450 955.840, 1267 956.913, 1267 957.885 C 1267 958.856, 1265.908 960.678, 1264.572 961.932 C 1263.237 963.187, 1262.361 964.777, 1262.625 965.466 C 1263.014 966.478, 1257.984 972.966, 1254.301 976.204 C 1253.861 976.592, 1251.588 978.557, 1249.250 980.571 C 1246.912 982.585, 1245 984.807, 1245 985.508 C 1245 986.209, 1243.905 987.058, 1242.567 987.394 C 1241.228 987.730, 1239.857 988.875, 1239.520 989.938 C 1239.182 991.001, 1238.140 992.073, 1237.203 992.320 C 1235.934 992.654, 1235.883 992.797, 1237 992.883 C 1237.825 992.946, 1239.807 991.873, 1241.406 990.499 C 1243.004 989.124, 1244.691 988, 1245.156 988 C 1245.620 988, 1246 987.345, 1246 986.545 C 1246 984.997, 1250.524 980, 1251.926 980 C 1252.386 980, 1254.728 977.699, 1257.131 974.887 C 1259.534 972.074, 1262.063 969.181, 1262.750 968.458 C 1263.438 967.735, 1264 966.642, 1264 966.030 C 1264 965.417, 1264.900 963.950, 1266 962.770 C 1267.100 961.589, 1268 959.583, 1268 958.311 C 1268 957.040, 1268.450 956, 1269 956 C 1269.550 956, 1270 954.650, 1270 953 C 1270 951.350, 1270.450 950, 1271 950 C 1271.550 950, 1272 948.965, 1272 947.700 C 1272 946.435, 1272.492 944.908, 1273.094 944.306 C 1273.695 943.705, 1273.973 942.377, 1273.710 941.356 C 1273.279 939.684, 1273.220 939.675, 1273.116 941.264 M 1115.919 944.865 L 1113.508 946.817 1116.254 946.292 C 1117.923 945.973, 1119 946.205, 1119 946.883 C 1119 947.498, 1119.900 948, 1121 948 C 1122.100 948, 1123 947.551, 1123 947.002 C 1123 946.434, 1124.833 946.169, 1127.250 946.387 C 1129.588 946.597, 1131.500 947.234, 1131.500 947.801 C 1131.500 949.827, 1132.904 950.180, 1135.033 948.689 C 1137.194 947.176, 1137.194 947.174, 1135.156 946.083 C 1134.034 945.483, 1131.628 945.027, 1129.808 945.070 C 1126.255 945.153, 1122.465 944.570, 1119.915 943.548 C 1119.015 943.187, 1117.288 943.756, 1115.919 944.865 M 1169.500 943.770 C 1167.300 943.935, 1164.825 944.373, 1164 944.743 C 1163.175 945.113, 1160.700 945.527, 1158.500 945.663 C 1146.952 946.375, 1141.975 946.873, 1139.933 947.521 C 1137.930 948.157, 1137.865 948.345, 1139.358 949.181 C 1140.284 949.699, 1140.776 950.553, 1140.451 951.079 C 1140.095 951.655, 1141.655 951.858, 1144.387 951.591 C 1149.233 951.116, 1152.223 949.885, 1152.109 948.410 C 1152.070 947.910, 1153.267 947.183, 1154.769 946.795 C 1157.334 946.132, 1157.382 946.178, 1155.559 947.545 C 1153.647 948.978, 1153.648 949, 1155.642 949 C 1156.756 949, 1157.975 948.692, 1158.352 948.315 C 1159.322 947.344, 1166.180 945.033, 1168.143 945.015 C 1169.047 945.007, 1170.045 945.675, 1170.362 946.500 C 1171.116 948.466, 1173 948.434, 1173 946.455 C 1173 945.240, 1173.725 945.045, 1176.385 945.544 C 1178.629 945.965, 1180.034 945.755, 1180.550 944.920 C 1181.099 944.030, 1180.837 943.849, 1179.655 944.302 C 1178.735 944.655, 1176.974 944.612, 1175.741 944.207 C 1174.509 943.802, 1171.700 943.606, 1169.500 943.770 M 1018.250 984.689 C 1019.212 984.941, 1020 985.491, 1020 985.913 C 1020 986.957, 1024.593 988.974, 1027.297 989.116 C 1028.989 989.205, 1029.094 989.338, 1027.750 989.689 C 1026.787 989.941, 1026 990.379, 1026 990.663 C 1026 991.741, 1030.572 994.935, 1032.161 994.967 C 1033.075 994.985, 1034.884 996.262, 1036.183 997.805 C 1039.181 1001.369, 1041.161 1002.123, 1042.830 1000.337 C 1043.949 999.139, 1043.777 999.018, 1041.700 999.539 C 1039.527 1000.085, 1039.192 999.777, 1038.743 996.827 C 1038.151 992.934, 1038.225 992.804, 1041.218 992.493 C 1045.446 992.053, 1045.509 991.926, 1042.212 990.493 C 1040.344 989.681, 1037.648 989.320, 1035.965 989.657 C 1034.337 989.983, 1032.419 989.763, 1031.703 989.168 C 1030.987 988.574, 1028.519 987.787, 1026.219 987.419 C 1023.919 987.051, 1021.524 986.132, 1020.896 985.375 C 1020.269 984.619, 1019.023 984.052, 1018.128 984.116 C 1016.754 984.214, 1016.774 984.303, 1018.250 984.689 M 1234.070 993.180 C 1234.030 994.133, 1233.026 994.999, 1231.750 995.180 C 1230.377 995.375, 1229.497 996.198, 1229.491 997.292 C 1229.481 999.458, 1227.319 1000.964, 1224.191 1000.985 C 1222.921 1000.993, 1222.129 1001.399, 1222.430 1001.887 C 1223.274 1003.253, 1220.108 1005.403, 1217.151 1005.471 C 1215.341 1005.513, 1214.539 1006.049, 1214.621 1007.162 C 1214.712 1008.381, 1213.243 1009.085, 1208.774 1009.965 C 1205.491 1010.610, 1203.050 1011.383, 1203.349 1011.682 C 1205.233 1013.566, 1222.477 1006.096, 1223.833 1002.808 C 1224.017 1002.364, 1224.989 1002, 1225.994 1002 C 1227 1002, 1228.919 1000.696, 1230.260 999.102 C 1231.601 997.509, 1233.380 996.046, 1234.213 995.852 C 1235.294 995.601, 1235.500 994.928, 1234.934 993.500 C 1234.301 991.904, 1234.126 991.839, 1234.070 993.180 M 1052.450 1000.081 C 1052.082 1000.676, 1050.752 1000.904, 1049.493 1000.588 C 1048.018 1000.217, 1046.370 1000.709, 1044.853 1001.973 C 1043.559 1003.051, 1043.063 1003.948, 1043.750 1003.967 C 1044.438 1003.985, 1045 1003.598, 1045 1003.107 C 1045 1001.744, 1048.211 1000.811, 1049.268 1001.868 C 1049.846 1002.446, 1049.401 1003.055, 1048.101 1003.468 C 1045.465 1004.305, 1045.419 1005.619, 1047.977 1006.988 C 1051.026 1008.620, 1054 1006.285, 1054 1002.259 C 1054 998.856, 1053.576 998.260, 1052.450 1000.081 M 1093.500 1012.307 C 1092.400 1012.963, 1091.228 1013.871, 1090.895 1014.324 C 1090.563 1014.777, 1089.582 1014.440, 1088.717 1013.574 C 1086.941 1011.799, 1084 1011.463, 1084 1013.035 C 1084 1013.714, 1083.226 1013.674, 1081.750 1012.918 C 1079.666 1011.852, 1079.618 1011.890, 1081.092 1013.439 C 1083.480 1015.950, 1093.263 1016.713, 1096.432 1014.637 C 1099.551 1012.593, 1100 1012.593, 1100 1014.639 C 1100 1016.019, 1100.793 1016.185, 1105 1015.686 C 1108.977 1015.215, 1110 1015.391, 1110 1016.547 C 1110 1017.346, 1110.450 1018.056, 1111 1018.125 C 1113.075 1018.384, 1113.571 1018.599, 1116.288 1020.416 C 1119.010 1022.236, 1119.111 1022.235, 1120.612 1020.390 C 1122.098 1018.562, 1122.133 1018.571, 1121.693 1020.654 C 1121.317 1022.430, 1121.787 1022.894, 1124.369 1023.298 C 1126.774 1023.674, 1127.977 1023.249, 1129.556 1021.464 C 1130.806 1020.051, 1132.097 1019.442, 1132.853 1019.909 C 1133.807 1020.499, 1133.736 1020.974, 1132.547 1021.961 C 1130.391 1023.750, 1130.617 1024.913, 1133 1024.290 C 1134.100 1024.002, 1135 1023.003, 1135 1022.070 C 1135 1021.138, 1136.355 1019.076, 1138.010 1017.490 C 1140.802 1014.815, 1141.261 1014.693, 1144.331 1015.803 C 1146.152 1016.461, 1149.102 1017, 1150.887 1017 C 1152.671 1017, 1155.114 1017.524, 1156.316 1018.164 C 1158.290 1019.216, 1158.368 1019.168, 1157.128 1017.664 C 1155.896 1016.171, 1156.096 1016, 1159.078 1016 C 1161.542 1016, 1162.109 1015.709, 1161.273 1014.873 C 1160.577 1014.177, 1159.068 1014.034, 1157.323 1014.499 C 1150.874 1016.218, 1145 1015.948, 1145 1013.933 C 1145 1013.420, 1145.900 1013, 1147 1013 C 1148.100 1013, 1149 1012.520, 1149 1011.933 C 1149 1010.789, 1144.877 1011.696, 1144 1013.032 C 1143.267 1014.149, 1139.772 1014.425, 1137.707 1013.530 C 1135.209 1012.447, 1134.125 1013.887, 1136.263 1015.450 C 1137.742 1016.532, 1137.802 1016.920, 1136.637 1017.887 C 1135.336 1018.966, 1126.780 1018.600, 1124.807 1017.381 C 1124.363 1017.106, 1124 1017.344, 1124 1017.910 C 1124 1019.121, 1120.815 1018.119, 1119.795 1016.587 C 1118.877 1015.207, 1107.074 1013.072, 1106.399 1014.163 C 1105.479 1015.651, 1101 1015.101, 1101 1013.500 C 1101 1012.675, 1100.362 1012, 1099.582 1012 C 1098.802 1012, 1097.564 1011.801, 1096.832 1011.557 C 1096.099 1011.314, 1094.600 1011.652, 1093.500 1012.307" stroke="none" fill="#fff759" fill-rule="evenodd"/><path d="M 1128 426.140 C 1128 426.767, 1127.232 427.841, 1126.293 428.527 C 1124.907 429.541, 1124.141 429.484, 1122.211 428.219 C 1119.976 426.754, 1119.199 426.915, 1109.167 430.906 C 1103.300 433.241, 1097.825 435.534, 1097 436.002 C 1095.391 436.914, 1086.633 441.292, 1078.500 445.249 C 1071.325 448.740, 1063.937 452.807, 1062.297 454.168 C 1061.520 454.813, 1060.256 456.845, 1059.487 458.684 C 1058.719 460.523, 1057.342 462.315, 1056.427 462.666 C 1055.513 463.017, 1052.940 465.040, 1050.710 467.161 C 1048.480 469.282, 1043.921 472.384, 1040.578 474.055 C 1026.346 481.165, 1021.310 484.241, 1016.107 489 C 1015.205 489.825, 1013.202 491.321, 1011.655 492.324 C 1009.910 493.457, 1009.058 494.709, 1009.410 495.626 C 1009.722 496.439, 1009.563 496.848, 1009.058 496.536 C 1008.552 496.223, 1007.856 496.425, 1007.510 496.984 C 1007.165 497.543, 1007.471 498.018, 1008.191 498.039 C 1008.911 498.061, 1008.080 498.696, 1006.345 499.451 C 1004.610 500.206, 1002.906 501.721, 1002.557 502.819 C 1002.209 503.917, 999.466 506.712, 996.462 509.029 C 991.175 513.108, 989.918 515.213, 992 516.500 C 992.550 516.840, 993 517.545, 993 518.067 C 993 518.592, 992.172 518.500, 991.148 517.860 C 989.652 516.926, 988.912 517.068, 987.298 518.602 C 986.200 519.646, 984.333 521.283, 983.150 522.240 C 981.968 523.197, 981.012 524.547, 981.026 525.240 C 981.061 526.971, 988.302 530.167, 993.522 530.755 C 997.434 531.196, 997.867 531.523, 998.312 534.370 C 999.031 538.966, 998.460 567.446, 997.622 568.803 C 997.228 569.441, 996.895 573.114, 996.883 576.966 C 996.870 580.817, 996.413 584.245, 995.865 584.583 C 995.318 584.922, 994.964 586.391, 995.079 587.849 C 995.193 589.307, 995.020 591.175, 994.693 592 C 994.366 592.825, 993.964 594.625, 993.799 596 C 993.605 597.623, 992.423 599.038, 990.432 600.034 C 985.294 602.603, 978.058 609.076, 976.386 612.599 C 974.217 617.169, 973.964 622.140, 975.793 624.250 C 976.627 625.212, 976.835 626, 976.254 626 C 975.673 626, 975.243 627.573, 975.297 629.495 C 975.368 632.008, 975.935 633.162, 977.313 633.599 C 979.004 634.136, 979.147 634.816, 978.529 639.354 C 977.331 648.147, 977.123 649.317, 975.567 656 C 972.830 667.756, 971.485 672.470, 970.234 674.684 C 969.555 675.886, 969 677.353, 969 677.945 C 969 678.537, 968.022 681.103, 966.826 683.647 C 964.689 688.194, 964.684 688.296, 966.576 689.679 C 967.786 690.564, 968.381 691.996, 968.179 693.539 C 967.939 695.374, 968.234 695.847, 969.349 695.419 C 970.366 695.029, 970.946 695.587, 971.170 697.174 C 971.430 699.006, 972.220 699.569, 974.895 699.824 C 976.903 700.016, 978.616 699.622, 979.087 698.860 C 980.061 697.283, 988.791 696.582, 990.438 697.949 C 991.135 698.527, 995.341 698.725, 1000.565 698.426 C 1007.032 698.056, 1010.605 698.321, 1013.500 699.387 C 1015.700 700.197, 1016.938 700.891, 1016.250 700.930 C 1015.563 700.968, 1015 701.675, 1015 702.500 C 1015 703.325, 1014.550 704, 1014 704 C 1013.450 704, 1013 705.058, 1013 706.352 C 1013 707.646, 1011.925 710.233, 1010.611 712.102 C 1009.298 713.971, 1006.052 718.875, 1003.400 723 C 1000.747 727.125, 998.037 731.054, 997.378 731.732 C 996.719 732.409, 995.378 735.109, 994.399 737.732 C 993.419 740.354, 992.004 743.471, 991.255 744.657 C 990.330 746.120, 990.232 747.025, 990.948 747.468 C 991.689 747.926, 991.682 748.725, 990.926 750.139 C 990.332 751.248, 990.092 752.796, 990.392 753.578 C 990.692 754.360, 990.541 755, 990.058 755 C 988.697 755, 985.097 763.111, 984.816 766.808 C 984.679 768.627, 984.013 770.574, 983.338 771.135 C 982.662 771.695, 981.594 774.707, 980.963 777.827 C 980.333 780.947, 979.164 784.525, 978.367 785.778 C 977.569 787.031, 977.181 788.484, 977.505 789.008 C 977.828 789.531, 977.599 790.881, 976.996 792.008 C 976.393 793.135, 975.750 795.506, 975.568 797.278 C 975.386 799.050, 974.722 801.797, 974.093 803.382 C 973.464 804.967, 973.216 807.105, 973.542 808.132 C 973.868 809.160, 973.655 810, 973.067 810 C 972.480 810, 972 810.810, 972 811.800 C 972 812.790, 971.508 814.092, 970.907 814.693 C 970.117 815.483, 970.127 816.369, 970.943 817.893 C 971.610 819.141, 971.676 820, 971.103 820 C 969.313 820, 968.264 826.693, 967.812 841 C 967.751 842.925, 967.206 844.824, 966.600 845.219 C 965.817 845.732, 965.879 846.551, 966.818 848.065 C 967.941 849.876, 967.889 850.465, 966.470 852.033 C 964.656 854.038, 965.230 856, 967.630 856 C 968.956 856, 968.949 856.194, 967.573 857.569 C 966.366 858.777, 966.250 859.599, 967.071 861.133 C 967.801 862.496, 967.815 863.518, 967.116 864.360 C 966.149 865.526, 965.939 870, 966.853 870 C 967.087 870, 967.855 869.213, 968.558 868.252 C 969.261 867.290, 970.175 866.842, 970.589 867.256 C 971.003 867.669, 970.360 869.052, 969.161 870.328 C 967.963 871.604, 967.323 872.989, 967.739 873.406 C 968.156 873.823, 967.697 874.749, 966.719 875.463 C 965.136 876.621, 965.115 876.830, 966.534 877.375 C 968.572 878.157, 967.542 879.819, 964.153 881.219 C 961.971 882.120, 961.819 882.390, 963.299 882.740 C 964.478 883.019, 964.995 883.912, 964.799 885.333 C 964.619 886.638, 964.992 887.402, 965.737 887.254 C 966.471 887.108, 966.878 887.899, 966.737 889.198 C 966.514 891.258, 966.914 891.393, 973.500 891.471 C 980.735 891.557, 980.640 891.597, 987.093 885.821 C 994.032 879.609, 993.911 879.681, 995.351 880.876 C 996.354 881.709, 996.670 884.103, 996.491 889.514 C 996.259 896.497, 996.382 897, 998.312 897 C 1000.253 897, 1000.271 897.081, 998.609 898.296 C 997.113 899.390, 996.854 901.068, 996.949 909.046 C 997.010 914.246, 997.078 920.188, 997.099 922.250 C 997.128 925.075, 997.552 926.004, 998.819 926.015 C 1000.215 926.028, 1000.256 926.185, 999.064 926.939 C 997.947 927.646, 997.890 928.162, 998.806 929.266 C 999.453 930.046, 999.790 930.877, 999.554 931.113 C 999.318 931.349, 998.909 933.870, 998.644 936.716 C 998.299 940.435, 998.563 942.222, 999.582 943.068 C 1000.362 943.715, 1001 945.289, 1001 946.566 C 1001 947.842, 1002.013 949.608, 1003.250 950.490 C 1005.343 951.981, 1005.377 952.164, 1003.729 953.108 C 1001.574 954.343, 1002.375 956, 1005.126 956 C 1006.767 956, 1006.996 956.412, 1006.377 958.250 C 1005.960 959.487, 1005.593 961.625, 1005.560 963 C 1005.509 965.120, 1006.009 965.549, 1008.848 965.821 C 1012.287 966.150, 1012.423 966.595, 1010.506 971.250 C 1009.908 972.704, 1010.332 973, 1013.015 973 C 1015.860 973, 1016.087 973.190, 1014.920 974.597 C 1013.800 975.946, 1013.868 976.347, 1015.358 977.181 C 1016.687 977.924, 1016.964 978.888, 1016.482 981.084 C 1015.944 983.530, 1016.156 984, 1017.798 984 C 1018.874 984, 1020.269 984.619, 1020.896 985.375 C 1021.524 986.132, 1023.919 987.051, 1026.219 987.419 C 1028.519 987.787, 1030.987 988.574, 1031.703 989.168 C 1032.419 989.763, 1034.337 989.983, 1035.965 989.657 C 1037.648 989.320, 1040.344 989.681, 1042.212 990.493 C 1045.509 991.926, 1045.446 992.053, 1041.218 992.493 C 1038.225 992.804, 1038.151 992.934, 1038.743 996.827 C 1039.196 999.805, 1039.525 1000.098, 1041.875 999.617 C 1043.319 999.321, 1043.938 999.324, 1043.250 999.623 C 1041.915 1000.204, 1041.494 1003.021, 1042.750 1002.968 C 1043.162 1002.951, 1044.376 1002.274, 1045.448 1001.464 C 1046.519 1000.653, 1048.228 1000.255, 1049.246 1000.578 C 1050.263 1000.901, 1051.749 1000.623, 1052.548 999.960 C 1053.772 998.944, 1054 999.324, 1054 1002.378 C 1054 1005.274, 1054.382 1006, 1055.906 1006 C 1057.355 1006, 1057.680 1005.492, 1057.260 1003.887 C 1056.761 1001.976, 1056.920 1001.887, 1058.918 1002.956 C 1060.707 1003.913, 1061.006 1004.696, 1060.487 1007.060 C 1059.867 1009.880, 1059.951 1009.960, 1062.923 1009.365 C 1065.392 1008.872, 1066 1009.085, 1066 1010.447 C 1066 1011.620, 1066.694 1012.060, 1068.250 1011.872 C 1069.487 1011.723, 1071.502 1012.151, 1072.727 1012.824 C 1074.477 1013.784, 1075.371 1013.785, 1076.903 1012.829 C 1078.406 1011.890, 1079.440 1011.880, 1081.426 1012.784 C 1082.972 1013.489, 1084 1013.566, 1084 1012.979 C 1084 1011.453, 1086.971 1011.828, 1088.717 1013.574 C 1089.582 1014.440, 1090.563 1014.777, 1090.895 1014.324 C 1093.178 1011.214, 1101 1010.666, 1101 1013.617 C 1101 1015.113, 1105.529 1015.571, 1106.399 1014.163 C 1107.074 1013.072, 1118.877 1015.207, 1119.795 1016.587 C 1120.815 1018.119, 1124 1019.121, 1124 1017.910 C 1124 1017.344, 1124.363 1017.106, 1124.807 1017.381 C 1126.780 1018.600, 1135.336 1018.966, 1136.637 1017.887 C 1137.802 1016.920, 1137.742 1016.532, 1136.263 1015.450 C 1134.125 1013.887, 1135.209 1012.447, 1137.707 1013.530 C 1139.772 1014.425, 1143.267 1014.149, 1144 1013.032 C 1144.877 1011.696, 1149 1010.789, 1149 1011.933 C 1149 1012.520, 1148.100 1013, 1147 1013 C 1145.900 1013, 1145 1013.420, 1145 1013.933 C 1145 1015.948, 1150.874 1016.218, 1157.323 1014.499 C 1159.068 1014.034, 1160.577 1014.177, 1161.273 1014.873 C 1162.109 1015.709, 1161.518 1016, 1158.986 1016 C 1155.851 1016, 1155.703 1016.131, 1157.178 1017.606 C 1158.574 1019.003, 1159.482 1019.053, 1164.142 1017.991 C 1167.089 1017.320, 1172.984 1016.655, 1177.243 1016.514 C 1181.662 1016.367, 1185.643 1015.711, 1186.517 1014.986 C 1187.358 1014.288, 1189.823 1013.590, 1191.994 1013.435 C 1194.164 1013.280, 1196.966 1012.808, 1198.220 1012.386 C 1199.474 1011.964, 1200.950 1011.571, 1201.500 1011.513 C 1202.050 1011.455, 1205.255 1010.819, 1208.621 1010.099 C 1213.182 1009.124, 1214.712 1008.375, 1214.621 1007.162 C 1214.539 1006.049, 1215.341 1005.513, 1217.151 1005.471 C 1220.108 1005.403, 1223.274 1003.253, 1222.430 1001.887 C 1222.129 1001.399, 1222.921 1000.993, 1224.191 1000.985 C 1227.319 1000.964, 1229.481 999.458, 1229.491 997.292 C 1229.497 996.198, 1230.377 995.375, 1231.750 995.180 C 1232.987 995.005, 1234 994.217, 1234 993.430 C 1234 992.582, 1234.990 992, 1236.433 992 C 1237.986 992, 1239.094 991.278, 1239.499 990.002 C 1239.848 988.904, 1241.228 987.730, 1242.567 987.394 C 1243.905 987.058, 1245 986.209, 1245 985.508 C 1245 984.807, 1246.912 982.585, 1249.250 980.571 C 1251.588 978.557, 1253.861 976.592, 1254.301 976.204 C 1257.984 972.966, 1263.014 966.478, 1262.625 965.466 C 1262.361 964.777, 1263.237 963.187, 1264.572 961.932 C 1265.908 960.678, 1267 958.856, 1267 957.885 C 1267 956.913, 1267.450 955.840, 1268 955.500 C 1268.550 955.160, 1269 954.002, 1269 952.927 C 1269 951.852, 1269.397 950.191, 1269.883 949.236 C 1271.311 946.430, 1272.828 942.666, 1273.505 940.250 C 1273.851 939.013, 1274.496 938, 1274.937 938 C 1275.379 938, 1276.275 935.863, 1276.929 933.250 C 1277.583 930.638, 1278.541 926.873, 1279.059 924.884 C 1279.577 922.895, 1280 919.925, 1280 918.283 C 1280 913.607, 1281.913 909.256, 1284.236 908.648 C 1287.061 907.910, 1288 908.636, 1288 911.559 C 1288 913.062, 1288.576 914, 1289.500 914 C 1290.325 914, 1291.001 914.563, 1291.001 915.250 C 1291.002 915.938, 1292.802 918.525, 1295 921 C 1297.198 923.475, 1298.998 925.866, 1298.999 926.313 C 1298.999 926.760, 1300.013 926.985, 1301.250 926.813 C 1302.950 926.576, 1303.579 927.059, 1303.825 928.788 C 1304.003 930.047, 1304.955 931.579, 1305.940 932.195 C 1306.925 932.810, 1307.563 934.030, 1307.358 934.907 C 1306.693 937.750, 1310.389 941.230, 1314.415 941.550 C 1323.462 942.267, 1328.375 936.764, 1330.199 923.870 C 1330.811 919.542, 1331.691 916, 1332.156 916 C 1332.620 916, 1333 915.325, 1333 914.500 C 1333 913.675, 1332.480 913, 1331.845 913 C 1331.178 913, 1331.431 912.181, 1332.445 911.061 C 1334.262 909.053, 1334.806 900.237, 1334.146 883.500 C 1333.994 879.650, 1334.247 875.487, 1334.708 874.249 C 1335.879 871.101, 1333.996 854.697, 1332.351 853.710 C 1331.336 853.101, 1331.295 852.500, 1332.175 851.092 C 1332.861 849.993, 1332.985 848.515, 1332.486 847.382 C 1332.030 846.347, 1331.548 840.573, 1331.416 834.550 C 1331.214 825.375, 1330.885 823.389, 1329.391 822.297 C 1328.121 821.368, 1327.917 820.683, 1328.680 819.920 C 1329.359 819.241, 1329.463 817.499, 1328.964 815.173 C 1328.529 813.153, 1327.658 808.934, 1327.026 805.798 C 1326.187 801.631, 1325.352 799.929, 1323.925 799.476 C 1322.850 799.135, 1322.234 798.431, 1322.555 797.912 C 1322.876 797.392, 1323.557 797.226, 1324.069 797.543 C 1324.581 797.859, 1325 797.465, 1325 796.666 C 1325 795.867, 1324.225 794.917, 1323.278 794.553 C 1321.902 794.025, 1321.828 793.725, 1322.906 793.058 C 1323.756 792.533, 1323.940 791.719, 1323.403 790.862 C 1322.934 790.113, 1322.673 788.752, 1322.823 787.839 C 1322.973 786.925, 1322.624 785.886, 1322.048 785.530 C 1321.472 785.173, 1321 783.691, 1321 782.235 C 1321 780.780, 1319.387 776.151, 1317.415 771.949 C 1314.315 765.343, 1313.529 764.367, 1311.604 764.735 C 1310.283 764.988, 1308.793 764.453, 1307.939 763.419 C 1306.621 761.825, 1306.732 761.722, 1309.250 762.200 C 1310.763 762.488, 1312 762.335, 1312 761.861 C 1312 760.671, 1308.224 757, 1307 757 C 1306.450 757, 1306 756.120, 1306 755.044 C 1306 753.969, 1304.908 751.479, 1303.572 749.511 C 1302.237 747.544, 1301 745.611, 1300.822 745.217 C 1300.114 743.642, 1282.365 729.929, 1279.046 728.393 C 1274.772 726.415, 1271 723.124, 1271 721.374 C 1271 720.671, 1272.947 718.757, 1275.326 717.120 C 1281.345 712.979, 1290.954 702.359, 1293.127 697.447 C 1294.125 695.190, 1295.837 692.206, 1296.931 690.814 C 1298.026 689.423, 1299.181 686.809, 1299.499 685.005 C 1299.817 683.201, 1300.549 680.842, 1301.127 679.763 C 1301.723 678.649, 1302.216 670.826, 1302.268 661.651 C 1302.342 648.742, 1302.034 644.781, 1300.737 641.918 C 1299.844 639.948, 1298.791 635.909, 1298.398 632.943 C 1297.405 625.457, 1286.091 606.780, 1281.883 605.680 C 1280.405 605.293, 1280.061 604.590, 1280.489 602.833 C 1280.973 600.845, 1280.462 600.253, 1277.029 598.824 C 1273.039 597.165, 1271.608 595, 1274.500 595 C 1275.325 595, 1276 595.450, 1276 596 C 1276 596.550, 1276.706 597, 1277.568 597 C 1278.855 597, 1278.740 596.444, 1276.930 593.902 C 1273.741 589.424, 1259.045 575.001, 1257.668 574.997 C 1257.025 574.996, 1253.471 572.108, 1249.769 568.581 C 1245.508 564.520, 1241.838 561.912, 1239.769 561.472 C 1237.971 561.090, 1235.825 560.209, 1235 559.515 C 1234.175 558.821, 1231.700 557.683, 1229.500 556.988 C 1227.300 556.292, 1224.240 554.838, 1222.699 553.757 C 1220.216 552.014, 1219.933 551.266, 1220.199 547.146 C 1220.465 543.037, 1220.874 542.313, 1223.738 540.882 C 1225.519 539.993, 1227.544 538.808, 1228.238 538.249 C 1228.932 537.691, 1231.818 536.745, 1234.651 536.149 C 1244.148 534.148, 1259.376 526.692, 1265.500 521.043 C 1270.379 516.543, 1274.380 514, 1276.581 514 C 1277.699 514, 1278.076 513.399, 1277.747 512.142 C 1277.480 511.120, 1277.675 509.545, 1278.180 508.642 C 1278.754 507.618, 1278.736 507, 1278.132 507 C 1276.982 507, 1263.647 496.231, 1263.167 494.914 C 1262.983 494.411, 1262.266 494, 1261.572 494 C 1260.878 494, 1259.495 493.100, 1258.500 492 C 1257.505 490.900, 1256.085 490, 1255.345 490 C 1254.605 490, 1254 489.558, 1254 489.017 C 1254 488.476, 1251.722 486.789, 1248.938 485.267 C 1246.153 483.745, 1242.083 481.524, 1239.892 480.332 C 1237.701 479.139, 1234.692 477.683, 1233.204 477.096 C 1231.717 476.509, 1229.600 475.473, 1228.500 474.794 C 1227.400 474.115, 1224.925 472.602, 1223 471.431 C 1221.074 470.260, 1217.446 468.994, 1214.936 468.618 C 1212.161 468.201, 1209.133 466.869, 1207.208 465.217 C 1200.621 459.563, 1198.106 458, 1195.592 458 C 1194.166 458, 1193 457.574, 1193 457.053 C 1193 455.577, 1183.355 451.095, 1181.319 451.624 C 1180.133 451.932, 1179.152 451.341, 1178.500 449.926 C 1177.948 448.726, 1175.754 447.168, 1173.600 446.444 C 1171.455 445.722, 1169.394 444.637, 1169.020 444.032 C 1168.646 443.427, 1167.674 443.188, 1166.859 443.501 C 1165.996 443.832, 1163.896 442.699, 1161.826 440.784 C 1157.504 436.788, 1147.486 430.547, 1140.272 427.357 C 1134.652 424.871, 1128 424.212, 1128 426.140 M 1007 545.064 C 1007 549.585, 1006.521 551.872, 1005.290 553.232 C 1003.883 554.786, 1003.822 555.272, 1004.943 555.965 C 1006.002 556.619, 1006.150 558.448, 1005.608 564.154 C 1005.224 568.194, 1004.696 574.425, 1004.435 578 C 1004.173 581.575, 1003.518 584.650, 1002.980 584.833 C 1002.441 585.017, 1002 588.474, 1002 592.517 C 1002 599.792, 1002.028 599.870, 1004.750 600.184 C 1006.263 600.358, 1007.500 601.011, 1007.500 601.636 C 1007.500 602.261, 1008.676 603.949, 1010.113 605.386 L 1012.727 607.999 1017.863 599.929 C 1020.688 595.490, 1023 591.441, 1023 590.929 C 1023 590.418, 1023.441 590, 1023.980 590 C 1024.518 590, 1025.821 588.313, 1026.875 586.250 C 1029.405 581.297, 1041.521 565.065, 1044.684 562.391 C 1046.773 560.625, 1046.920 560.183, 1045.589 559.673 C 1044.632 559.305, 1044 557.885, 1044 556.103 C 1044 554.475, 1043.280 552.423, 1042.401 551.544 C 1041.173 550.316, 1041.068 549.623, 1041.949 548.561 C 1042.674 547.687, 1042.736 546.955, 1042.118 546.573 C 1041.579 546.240, 1040.856 546.425, 1040.510 546.984 C 1039.528 548.572, 1037 548.175, 1037 546.433 C 1037 545.343, 1036.416 545.051, 1035.084 545.473 C 1034.030 545.808, 1032.852 545.570, 1032.466 544.945 C 1032.011 544.208, 1030.246 544.036, 1027.450 544.455 C 1025.077 544.811, 1022.318 544.688, 1021.318 544.183 C 1020.318 543.677, 1017.475 542.575, 1015 541.734 C 1012.525 540.893, 1009.712 539.886, 1008.750 539.496 C 1007.194 538.865, 1007 539.481, 1007 545.064 M 1091.274 580.437 C 1088.399 581.133, 1084.349 582.820, 1082.274 584.185 C 1080.198 585.550, 1076.360 587.479, 1073.745 588.471 C 1070.017 589.886, 1067.155 592.325, 1060.483 599.776 C 1053.441 607.641, 1051.711 610.244, 1050.441 614.889 C 1049.598 617.975, 1047.691 623.150, 1046.204 626.388 C 1043.711 631.817, 1043.503 633.260, 1043.535 644.888 C 1043.566 655.695, 1043.898 658.287, 1045.853 663 C 1048.609 669.644, 1057.237 682.792, 1065.540 693 C 1068.894 697.125, 1072.462 701.761, 1073.468 703.302 C 1075.257 706.041, 1075.252 706.135, 1073.263 707.528 C 1072.144 708.312, 1070.944 710.089, 1070.595 711.477 C 1070.247 712.865, 1069.520 714, 1068.981 714 C 1068.441 714, 1068 714.884, 1068 715.965 C 1068 717.045, 1067.100 718.411, 1066 719 C 1064.900 719.589, 1064 720.730, 1064 721.535 C 1064 722.341, 1063.116 723.884, 1062.036 724.964 C 1060.957 726.043, 1060.464 727.169, 1060.943 727.465 C 1062.209 728.247, 1061.096 731.603, 1058.916 733.576 C 1057.624 734.746, 1057.221 736.034, 1057.635 737.681 C 1057.999 739.131, 1057.657 740.757, 1056.771 741.790 C 1054.552 744.377, 1054.025 746.623, 1055.328 747.945 C 1056.225 748.856, 1056.139 749.412, 1054.961 750.317 C 1054.114 750.968, 1053.351 752.554, 1053.266 753.841 C 1053.180 755.129, 1052.312 757.379, 1051.336 758.841 C 1050.360 760.304, 1049.663 761.990, 1049.788 762.589 C 1049.912 763.188, 1049.111 764.495, 1048.007 765.494 C 1045.870 767.428, 1045.433 770.555, 1046.963 772.974 C 1047.563 773.924, 1047.509 774.686, 1046.808 775.119 C 1046.210 775.488, 1045.525 777.750, 1045.286 780.145 C 1045.047 782.540, 1044.264 784.829, 1043.547 785.232 C 1042.646 785.737, 1042.399 787.363, 1042.751 790.482 C 1043.031 792.967, 1042.864 795, 1042.380 795 C 1041.896 795, 1041.420 797.066, 1041.323 799.591 C 1041.215 802.384, 1040.447 804.953, 1039.363 806.152 C 1037.832 807.843, 1037.786 808.250, 1039.040 809.026 C 1040.157 809.717, 1040.448 811.821, 1040.278 817.974 C 1040.156 822.398, 1040.482 827.139, 1041.003 828.509 C 1041.611 830.107, 1041.591 831.945, 1040.949 833.635 C 1039.413 837.674, 1039.244 845.051, 1040.584 849.561 C 1041.340 852.106, 1041.452 854.228, 1040.883 855.245 C 1040.339 856.216, 1040.339 857.092, 1040.884 857.428 C 1041.386 857.739, 1041.452 859.494, 1041.031 861.361 C 1040.578 863.370, 1040.702 865.494, 1041.337 866.616 C 1041.923 867.652, 1042.494 870.075, 1042.605 872 C 1042.940 877.808, 1043.823 883.905, 1044.485 884.976 C 1044.828 885.530, 1044.680 886.749, 1044.157 887.684 C 1043.497 888.864, 1043.667 890.088, 1044.713 891.684 C 1045.542 892.949, 1045.968 894.640, 1045.661 895.441 C 1045.321 896.327, 1045.866 897.140, 1047.051 897.516 C 1049.236 898.210, 1049.664 900.558, 1047.750 901.352 C 1046.160 902.012, 1050.500 905.986, 1052.861 906.032 C 1054.334 906.060, 1054.324 906.197, 1052.766 907.381 C 1050.814 908.863, 1051.422 910, 1054.167 910 C 1055.987 910, 1056.539 911.972, 1055.986 916.500 C 1055.380 921.465, 1055.373 921.455, 1059.250 921.146 C 1062.965 920.850, 1064.390 922.253, 1061.500 923.362 C 1060.675 923.678, 1060 924.449, 1060 925.076 C 1060 925.702, 1060.675 925.941, 1061.500 925.607 C 1062.325 925.273, 1063.698 924.718, 1064.551 924.374 C 1065.816 923.862, 1065.973 924.259, 1065.403 926.529 C 1064.782 929.003, 1064.937 929.250, 1066.806 928.761 C 1067.962 928.459, 1069.642 928.749, 1070.540 929.406 C 1071.995 930.470, 1071.892 930.728, 1069.587 931.779 C 1066.410 933.226, 1066.275 934.577, 1069.229 935.350 C 1070.641 935.719, 1071.759 935.395, 1072.279 934.466 C 1073.498 932.287, 1074.704 932.685, 1075.411 935.500 C 1075.904 937.467, 1076.673 938, 1079.019 938 C 1080.893 938, 1082 938.515, 1082 939.386 C 1082 940.148, 1083.688 941.565, 1085.750 942.534 C 1087.813 943.503, 1089.815 944.782, 1090.201 945.377 C 1090.586 945.972, 1092.386 946.331, 1094.201 946.175 C 1096.269 945.997, 1099.291 946.844, 1102.303 948.446 C 1108.253 951.610, 1109.116 951.614, 1112.818 948.500 C 1115.841 945.956, 1119 945.189, 1119 947 C 1119 947.550, 1119.900 948, 1121 948 C 1122.100 948, 1123 947.551, 1123 947.002 C 1123 946.434, 1124.833 946.169, 1127.250 946.387 C 1129.588 946.597, 1131.500 947.234, 1131.500 947.801 C 1131.500 949.719, 1132.943 950.292, 1134.505 948.995 C 1135.711 947.995, 1136.625 947.964, 1138.586 948.857 C 1139.976 949.490, 1140.831 950.464, 1140.487 951.021 C 1140.085 951.671, 1141.484 951.875, 1144.387 951.591 C 1149.236 951.116, 1152.815 949.612, 1152 948.392 C 1151.725 947.981, 1152.850 947.294, 1154.500 946.867 C 1157.284 946.145, 1157.360 946.194, 1155.559 947.545 C 1153.647 948.978, 1153.648 949, 1155.642 949 C 1156.756 949, 1157.975 948.692, 1158.352 948.315 C 1159.322 947.344, 1166.180 945.033, 1168.143 945.015 C 1169.047 945.007, 1170.045 945.675, 1170.362 946.500 C 1171.116 948.466, 1173 948.434, 1173 946.455 C 1173 945.240, 1173.725 945.045, 1176.385 945.544 C 1178.362 945.915, 1180.040 945.744, 1180.418 945.133 C 1180.773 944.558, 1181.755 944.352, 1182.599 944.677 C 1183.444 945.001, 1185.117 944.815, 1186.317 944.263 C 1187.518 943.712, 1190.845 942.189, 1193.711 940.880 C 1196.577 939.571, 1198.940 938.127, 1198.961 937.672 C 1199.043 935.922, 1207.123 929.110, 1208.494 929.636 C 1209.942 930.192, 1217.949 924.249, 1217.982 922.594 C 1217.992 922.096, 1219.125 920.214, 1220.500 918.411 C 1221.875 916.608, 1223 914.428, 1223 913.567 C 1223 912.705, 1223.450 912, 1224 912 C 1224.550 912, 1225 911.307, 1225 910.460 C 1225 909.613, 1225.900 907.156, 1227 905 C 1228.100 902.844, 1229 900.229, 1229 899.189 C 1229 896.903, 1233.434 888.299, 1236.087 885.436 C 1237.139 884.300, 1238.002 882.275, 1238.004 880.936 C 1238.006 879.596, 1238.853 877.113, 1239.887 875.418 C 1241.586 872.631, 1243.702 865.721, 1244.455 860.500 C 1244.613 859.400, 1245.015 857.825, 1245.349 857 C 1246.659 853.755, 1248.198 843.219, 1248.115 838.064 C 1248.057 834.476, 1248.549 832.051, 1249.562 830.931 C 1250.577 829.810, 1250.873 828.344, 1250.437 826.605 C 1250.045 825.043, 1250.278 823.370, 1251.011 822.487 C 1251.968 821.334, 1251.977 820.678, 1251.053 819.564 C 1250.259 818.608, 1250.173 817.522, 1250.795 816.314 C 1251.309 815.316, 1251.551 814.005, 1251.332 813.400 C 1251.113 812.795, 1251.623 811.728, 1252.467 811.028 C 1254.592 809.264, 1254.382 808, 1251.966 808 C 1250.367 808, 1250.004 807.459, 1250.271 805.468 C 1250.457 804.076, 1251.329 802.097, 1252.207 801.071 C 1253.880 799.117, 1252.921 797, 1250.363 797 C 1248.417 797, 1249.935 789.833, 1252.376 787.500 L 1254.468 785.500 1252.234 785.180 C 1251.005 785.005, 1250.005 784.780, 1250.011 784.680 C 1250.017 784.581, 1250.691 782.295, 1251.508 779.599 C 1252.607 775.976, 1252.706 774.350, 1251.886 773.362 C 1251.275 772.627, 1251.016 771.400, 1251.310 770.635 C 1251.604 769.870, 1251.372 768.772, 1250.797 768.197 C 1249.314 766.714, 1250.721 760.264, 1252.790 759.058 C 1254.393 758.123, 1254.390 758.059, 1252.750 758.030 C 1251.105 758.002, 1250.387 755.279, 1250.942 751.176 C 1251.041 750.448, 1250.679 749.318, 1250.138 748.666 C 1249.596 748.014, 1248.834 744.658, 1248.444 741.208 C 1247.901 736.411, 1247.202 734.518, 1245.472 733.157 C 1242.315 730.673, 1243.911 728, 1248.550 728 C 1250.950 728, 1252 727.544, 1252 726.500 C 1252 724.708, 1250.836 724.564, 1249.242 726.158 C 1248.366 727.034, 1247.692 726.989, 1246.466 725.972 C 1245.107 724.844, 1244.708 724.854, 1243.978 726.035 C 1243.500 726.809, 1242.747 727.056, 1242.304 726.584 C 1241.862 726.112, 1242.063 725.525, 1242.750 725.280 C 1244.198 724.763, 1244.459 722, 1243.059 722 C 1242.541 722, 1241.869 722.403, 1241.564 722.896 C 1240.783 724.160, 1234.053 722.482, 1232.109 720.537 C 1230.768 719.196, 1230.730 718.786, 1231.878 718.076 C 1232.636 717.607, 1232.947 716.723, 1232.569 716.112 C 1231.758 714.800, 1229 714.612, 1229 715.869 C 1229 716.858, 1222.108 718.184, 1220.887 717.430 C 1220.447 717.158, 1220.357 716.234, 1220.686 715.375 C 1221.095 714.310, 1222.192 713.948, 1224.143 714.234 C 1227.527 714.731, 1227.982 713.509, 1224.750 712.601 C 1222.834 712.062, 1222.734 711.829, 1224.076 711.032 C 1227.580 708.950, 1237.295 699.329, 1238.739 696.511 C 1239.587 694.855, 1241.348 692.222, 1242.652 690.660 C 1246.133 686.490, 1257.691 662.283, 1259.480 655.418 C 1260.328 652.163, 1261.291 645.225, 1261.621 640 C 1262.113 632.203, 1261.842 629.036, 1260.110 622.332 C 1256.987 610.247, 1254.821 605.993, 1249.245 601 C 1239.918 592.646, 1235.321 589.928, 1228.699 588.852 C 1225.290 588.298, 1220.700 587.317, 1218.500 586.672 C 1212.385 584.880, 1204.856 585.532, 1199.338 588.331 C 1189.778 593.181, 1177.868 607.877, 1173.945 619.664 C 1172.031 625.417, 1171.857 627.413, 1172.479 636.538 L 1173.185 646.887 1176.335 647.194 C 1178.606 647.414, 1179.845 648.252, 1180.769 650.191 C 1181.475 651.671, 1183.053 653.182, 1184.276 653.550 C 1187.435 654.498, 1193.940 660.993, 1193.328 662.587 C 1193.046 663.322, 1193.520 665.336, 1194.381 667.061 C 1195.871 670.048, 1195.839 670.291, 1193.723 672.091 C 1191.469 674.009, 1186.308 677.968, 1181.630 681.367 C 1180.217 682.395, 1178.791 684.082, 1178.463 685.117 C 1178.134 686.153, 1177.221 687, 1176.433 687 C 1175.645 687, 1175 687.356, 1175 687.792 C 1175 688.227, 1173.537 689.292, 1171.750 690.158 C 1161.908 694.925, 1158.269 696.971, 1157.078 698.405 C 1156.351 699.282, 1155.328 700, 1154.806 700 C 1154.284 700, 1153.164 700.693, 1152.318 701.539 C 1150.932 702.925, 1150.653 702.907, 1149.521 701.359 C 1148.353 699.762, 1148.180 699.795, 1147.102 701.810 C 1146.123 703.639, 1145.642 703.794, 1144.040 702.793 C 1142.627 701.910, 1142.378 701.162, 1143.070 699.869 C 1144.409 697.368, 1144.333 697.222, 1140.750 695.385 C 1138.963 694.468, 1136.228 692.657, 1134.673 691.359 C 1132.646 689.668, 1131.144 689.177, 1129.362 689.624 C 1127.387 690.120, 1126.764 689.812, 1126.322 688.124 C 1126.017 686.956, 1125.231 686, 1124.576 686 C 1123.364 686, 1117.818 679.066, 1114.882 673.881 C 1113.993 672.310, 1112.802 670.456, 1112.236 669.762 C 1110.414 667.526, 1109.010 661.011, 1110.331 660.917 C 1115.081 660.578, 1116.559 660.028, 1118.214 657.984 C 1119.250 656.704, 1122.309 654.008, 1125.012 651.991 C 1127.714 649.975, 1133.226 645.190, 1137.260 641.358 L 1144.594 634.391 1142.839 629.446 C 1141.873 626.726, 1141.032 622.250, 1140.969 619.500 C 1140.906 616.750, 1140.471 612.250, 1140.002 609.500 C 1139.533 606.750, 1138.838 602.700, 1138.457 600.500 C 1137.898 597.278, 1136.717 595.625, 1132.380 592 C 1129.419 589.525, 1125.309 586.825, 1123.248 586 C 1121.187 585.175, 1118.375 583.738, 1117 582.806 C 1111.590 579.140, 1100.746 578.141, 1091.274 580.437 M 1096.655 608.266 C 1090.586 611.792, 1087.372 619.819, 1088.480 628.686 C 1089.438 636.356, 1091.353 638, 1099.326 638 C 1104.653 638, 1105.996 637.633, 1107.835 635.676 C 1109.036 634.398, 1109.725 633.058, 1109.367 632.700 C 1109.008 632.342, 1109.163 631.475, 1109.709 630.774 C 1111.217 628.842, 1110.372 615.304, 1108.497 611.352 C 1107.105 608.419, 1103.729 605.955, 1101.185 606.016 C 1100.808 606.025, 1098.770 607.038, 1096.655 608.266 M 994.311 609.698 C 991.416 610.260, 985 617.440, 985 620.118 C 985 621.281, 986.683 623.772, 988.746 625.662 C 991.664 628.334, 993.046 628.957, 994.996 628.477 C 999.795 627.296, 1003.516 624.370, 1005.838 619.950 C 1007.124 617.503, 1007.841 615.834, 1007.430 616.241 C 1006.302 617.362, 1004.040 615.058, 1004.666 613.427 C 1004.989 612.586, 1004.604 612, 1003.729 612 C 1002.913 612, 1001.685 611.325, 1001 610.500 C 999.768 609.016, 998.564 608.871, 994.311 609.698 M 1205.276 613.109 C 1204.299 613.479, 1202.480 614.880, 1201.232 616.224 C 1199.296 618.310, 1199.033 619.458, 1199.434 624.083 C 1199.692 627.062, 1200.340 631.242, 1200.874 633.371 C 1201.407 635.501, 1201.619 637.829, 1201.344 638.545 C 1200.560 640.588, 1205.014 642.352, 1210.590 642.206 C 1217.982 642.012, 1220.847 640.610, 1222.645 636.308 C 1224.624 631.571, 1223.865 626.657, 1219.962 618.924 C 1217.697 614.437, 1216.429 612.980, 1214.736 612.919 C 1213.506 612.874, 1211.274 612.747, 1209.776 612.637 C 1208.279 612.527, 1206.254 612.739, 1205.276 613.109 M 995.750 637.716 C 990.990 638.437, 987.809 643.875, 987.237 652.271 C 986.900 657.232, 985.880 661.382, 983.988 665.500 C 982.471 668.800, 980.915 673.406, 980.530 675.737 C 980.144 678.067, 978.730 681.592, 977.388 683.570 C 976.045 685.549, 974.846 688.142, 974.723 689.334 C 974.514 691.360, 974.887 691.486, 980.500 691.285 C 992.518 690.856, 996.130 690.940, 999.284 691.724 C 1001.053 692.164, 1003.947 692.378, 1005.716 692.201 C 1008.529 691.919, 1009.017 691.427, 1009.607 688.282 C 1010.055 685.894, 1009.709 683.093, 1008.579 679.951 C 1007.423 676.734, 1007.020 673.340, 1007.323 669.359 C 1007.744 663.816, 1005.498 639.614, 1004.396 637.832 C 1003.877 636.992, 1000.801 636.951, 995.750 637.716 M 1153.557 640.726 C 1152.488 640.998, 1150.808 642.246, 1149.823 643.498 C 1148.214 645.543, 1143.704 647.591, 1141.750 647.164 C 1141.338 647.074, 1141 647.450, 1141 648 C 1141 648.550, 1140.100 649, 1139 649 C 1137.900 649, 1137 649.412, 1137 649.916 C 1137 651.395, 1129.508 659, 1128.052 659 C 1127.320 659, 1126.080 659.788, 1125.297 660.750 C 1124.262 662.023, 1123.733 662.160, 1123.354 661.250 C 1123.068 660.563, 1122.366 660, 1121.794 660 C 1121.144 660, 1121.200 660.536, 1121.942 661.430 C 1122.888 662.570, 1122.737 663.070, 1121.196 663.895 C 1117.293 665.984, 1122.452 675.995, 1127.437 676.004 C 1130.534 676.009, 1136 679.716, 1136 681.811 C 1136 682.823, 1137.147 684.729, 1138.549 686.046 C 1140.890 688.246, 1140.951 688.505, 1139.299 689.239 C 1138.116 689.765, 1138.588 689.874, 1140.680 689.558 C 1142.554 689.275, 1144.014 689.541, 1144.235 690.206 C 1145.176 693.027, 1160.139 690.221, 1163.502 686.593 C 1164.735 685.262, 1167.939 683.384, 1170.622 682.419 C 1176.161 680.427, 1183 673.325, 1183 669.567 C 1183 667.032, 1179.499 662, 1177.736 662 C 1175.905 662, 1168.873 653.860, 1166.959 649.524 C 1163.513 641.720, 1159.641 639.178, 1153.557 640.726" stroke="none" fill="#181818" fill-rule="evenodd"/></svg>